<?xml version="1.0" standalone="no"?>
<!DOCTYPE svg PUBLIC "-//W3C//DTD SVG 20010904//EN"
 "http://www.w3.org/TR/2001/REC-SVG-20010904/DTD/svg10.dtd">
<svg version="1.0" xmlns="http://www.w3.org/2000/svg"
 width="4117.000000pt" height="4117.000000pt" viewBox="0 0 4117.000000 4117.000000"
 preserveAspectRatio="xMidYMid meet">
<metadata>
Created by potrace 1.14, written by Peter Selinger 2001-2017
</metadata>
<g transform="translate(0.000000,4117.000000) scale(0.100000,-0.100000)"
fill="#000000" stroke="none">
<path d="M16690 39900 c0 -11 -3 -20 -7 -20 -5 0 -9 -14 -10 -31 -1 -17 -7
-37 -13 -44 -6 -7 -10 -17 -9 -21 1 -5 -3 -22 -9 -37 -7 -16 -10 -33 -6 -38 3
-5 1 -9 -3 -9 -7 0 -43 -100 -58 -160 -1 -3 -10 -32 -20 -65 -10 -33 -18 -63
-17 -67 1 -5 -3 -8 -10 -8 -6 0 -9 -3 -6 -6 4 -3 0 -21 -8 -40 -8 -19 -11 -34
-8 -34 4 0 1 -7 -6 -15 -7 -8 -9 -15 -5 -15 4 0 3 -6 -2 -12 -9 -11 -52 -143
-57 -173 -1 -5 -4 -14 -8 -20 -8 -14 -32 -98 -30 -107 1 -5 -3 -8 -8 -8 -5 0
-9 -3 -8 -7 4 -19 -15 -83 -25 -83 -6 0 -8 -3 -4 -6 3 -4 0 -22 -8 -40 -8 -19
-12 -34 -9 -34 2 0 -2 -13 -11 -30 -9 -16 -14 -30 -11 -30 2 0 -9 -39 -25 -87
-16 -47 -29 -92 -29 -100 0 -7 -4 -13 -8 -13 -5 0 -9 -6 -10 -12 -1 -23 -11
-57 -36 -131 -13 -39 -39 -119 -56 -177 -18 -58 -36 -109 -41 -115 -4 -5 -7
-12 -7 -15 0 -3 -6 -25 -13 -50 -15 -55 -14 -52 -22 -70 -7 -19 -28 -87 -31
-103 -2 -7 -6 -19 -9 -27 -28 -74 -46 -130 -41 -130 4 0 1 -7 -6 -15 -7 -8 -9
-15 -4 -15 5 0 2 -5 -6 -10 -13 -9 -13 -10 0 -10 12 -1 11 -3 -3 -11 -9 -6
-15 -15 -11 -20 3 -5 0 -17 -8 -26 -7 -9 -12 -19 -11 -22 1 -3 -12 -51 -29
-106 -18 -55 -33 -103 -34 -107 -1 -5 -3 -10 -4 -13 -1 -3 -4 -9 -5 -15 -1 -5
-4 -12 -5 -15 -1 -3 -4 -9 -5 -15 -1 -5 -3 -11 -5 -12 -3 -4 -9 -31 -12 -53
-2 -11 -6 -22 -9 -25 -7 -6 -61 -173 -88 -272 -8 -26 -17 -46 -21 -43 -5 3 -7
-3 -6 -12 2 -10 -7 -47 -20 -82 -13 -35 -21 -67 -19 -72 3 -4 2 -9 -3 -11 -4
-1 -23 -52 -41 -113 -19 -60 -38 -121 -44 -135 -11 -27 -14 -37 -20 -60 -2 -8
-9 -28 -15 -43 -7 -16 -12 -33 -12 -38 0 -5 -9 -35 -21 -67 -11 -31 -22 -65
-24 -74 -10 -45 -40 -134 -48 -139 -5 -3 -8 -9 -7 -13 3 -13 -13 -72 -24 -85
-6 -8 -10 -16 -8 -18 4 -4 -61 -218 -81 -268 -6 -16 -12 -32 -13 -35 0 -3 -6
-26 -13 -52 -7 -26 -12 -50 -11 -54 1 -4 -2 -10 -8 -13 -5 -3 -26 -62 -47
-131 -21 -69 -40 -129 -44 -135 -3 -5 -7 -17 -8 -26 -1 -9 -8 -29 -14 -45 -11
-26 -15 -40 -23 -79 -1 -5 -4 -14 -8 -20 -3 -5 -24 -71 -47 -145 -23 -74 -46
-144 -52 -155 -5 -11 -12 -31 -15 -45 -8 -38 -12 -55 -14 -57 -2 -2 -3 -6 -4
-10 -1 -5 -5 -14 -9 -20 -5 -7 -5 -18 -1 -25 5 -7 3 -8 -6 -3 -10 6 -12 4 -7
-7 3 -9 1 -20 -3 -24 -5 -5 -11 -21 -14 -34 -2 -14 -5 -25 -6 -25 -1 0 -3 -7
-5 -15 -2 -8 -22 -70 -44 -137 -23 -66 -41 -128 -41 -137 0 -9 -4 -16 -9 -16
-6 0 -8 -9 -6 -20 2 -11 0 -20 -6 -20 -5 0 -8 -3 -7 -7 0 -5 -2 -15 -5 -23
-14 -36 -57 -182 -57 -196 0 -7 -4 -14 -10 -14 -5 0 -9 -3 -8 -7 1 -5 -8 -41
-20 -80 -12 -40 -22 -74 -21 -75 2 -2 -3 -13 -10 -26 -7 -13 -14 -31 -16 -40
-2 -9 -13 -48 -26 -87 -13 -38 -24 -72 -24 -75 -1 -8 -36 -114 -43 -130 -3 -8
-6 -19 -7 -25 0 -5 -4 -15 -7 -21 -4 -6 -9 -21 -11 -35 -3 -13 -10 -35 -16
-49 -8 -21 -101 -308 -107 -332 -1 -5 -3 -10 -4 -13 -1 -3 -3 -8 -4 -12 -1 -5
-5 -14 -9 -20 -5 -7 -6 -17 -3 -22 4 -5 2 -11 -2 -13 -4 -1 -19 -39 -31 -83
-13 -44 -28 -91 -34 -105 -6 -14 -11 -29 -12 -35 -1 -5 -3 -12 -4 -15 -2 -3
-4 -12 -6 -20 -2 -8 -10 -35 -19 -59 -9 -24 -14 -47 -11 -51 3 -5 1 -10 -4
-12 -5 -1 -30 -73 -57 -158 -26 -85 -50 -157 -53 -160 -3 -3 -7 -13 -8 -22 -2
-10 -4 -26 -5 -35 -2 -10 -7 -21 -11 -24 -5 -4 -10 -18 -10 -33 -1 -14 -5 -26
-10 -26 -4 0 -6 -3 -5 -7 0 -5 -1 -15 -5 -23 -14 -38 -79 -246 -80 -257 0 -7
-5 -13 -10 -13 -6 0 -8 -3 -4 -6 3 -4 0 -22 -9 -42 -8 -19 -12 -37 -9 -40 3
-3 1 -10 -4 -16 -8 -11 -50 -135 -57 -170 -2 -10 -8 -24 -15 -32 -6 -8 -9 -14
-5 -14 3 0 -3 -22 -13 -49 -10 -28 -16 -52 -13 -55 3 -4 1 -6 -4 -6 -5 0 -11
-10 -11 -22 -1 -13 -6 -32 -11 -43 -5 -11 -26 -74 -46 -140 -21 -66 -40 -127
-42 -135 -3 -8 -5 -16 -5 -17 0 -2 -6 -18 -15 -38 -8 -19 -11 -35 -8 -35 4 0
2 -6 -3 -12 -6 -7 -14 -26 -18 -43 -10 -35 -10 -35 -18 -55 -13 -31 -59 -186
-60 -197 0 -7 -4 -13 -9 -13 -4 0 -7 -3 -6 -7 1 -5 -8 -41 -21 -80 -12 -40
-23 -76 -23 -80 0 -5 -4 -16 -10 -26 -5 -10 -11 -26 -13 -35 -7 -35 -78 -247
-86 -258 -5 -6 -7 -13 -4 -16 3 -3 -1 -21 -9 -40 -9 -20 -12 -38 -9 -42 4 -3
2 -6 -4 -6 -9 0 -11 -6 -15 -50 -1 -11 -5 -20 -9 -20 -4 0 -9 -10 -12 -22 -6
-30 -55 -189 -64 -208 -8 -19 -14 -41 -15 -57 -1 -7 -6 -13 -11 -13 -6 0 -8
-3 -4 -6 3 -3 -3 -29 -14 -58 -12 -28 -20 -52 -20 -53 1 -2 0 -5 0 -8 -1 -3
-2 -8 -3 -12 -1 -5 -19 -62 -40 -128 -21 -66 -39 -124 -40 -130 0 -5 -4 -12
-8 -15 -4 -3 -9 -17 -12 -30 -3 -14 -12 -44 -21 -68 -8 -24 -13 -47 -10 -52 3
-4 2 -10 -3 -12 -4 -1 -25 -57 -46 -123 -21 -66 -45 -137 -52 -158 -8 -21 -12
-42 -9 -47 3 -4 2 -10 -3 -12 -8 -3 -92 -254 -92 -276 0 -7 -4 -12 -10 -12 -5
0 -7 -6 -4 -14 3 -8 0 -17 -5 -21 -6 -3 -9 -11 -5 -16 3 -5 2 -15 -3 -22 -8
-9 -32 -79 -38 -107 -2 -11 -27 -86 -34 -105 -5 -11 -25 -74 -46 -140 -20 -66
-40 -127 -43 -135 -3 -8 -6 -17 -7 -20 0 -3 -18 -59 -40 -125 -21 -66 -40
-124 -41 -130 -1 -5 -9 -29 -17 -52 -9 -22 -13 -44 -10 -47 4 -3 2 -6 -4 -6
-5 0 -10 -6 -10 -12 0 -7 -18 -67 -40 -133 -22 -66 -44 -135 -48 -152 -3 -18
-10 -33 -14 -33 -4 0 -7 -8 -8 -17 -1 -18 -10 -56 -13 -60 -2 -2 -3 -6 -4 -10
-1 -5 -5 -14 -9 -20 -5 -7 -10 -22 -12 -33 -2 -11 -30 -100 -61 -197 -32 -97
-57 -183 -57 -190 0 -7 -5 -13 -10 -13 -5 0 -7 -7 -3 -15 3 -8 0 -15 -6 -15
-6 0 -9 -3 -5 -6 3 -4 0 -19 -9 -35 -8 -16 -13 -30 -12 -31 2 -3 -47 -163 -68
-219 -7 -20 -10 -39 -7 -43 4 -3 2 -6 -4 -6 -5 0 -10 -6 -10 -12 0 -7 -15 -56
-32 -108 -18 -52 -34 -104 -36 -115 -4 -18 -9 -31 -31 -90 -11 -31 -14 -43
-21 -75 -3 -16 -9 -30 -14 -30 -4 0 -6 -9 -4 -20 2 -11 -1 -20 -7 -20 -5 0 -8
-7 -4 -15 3 -8 1 -15 -4 -15 -6 0 -9 -3 -8 -7 0 -5 -2 -15 -5 -23 -7 -16 -71
-222 -72 -230 0 -3 -3 -10 -7 -15 -3 -6 -9 -27 -13 -48 -4 -20 -11 -40 -16
-43 -5 -3 -9 -16 -9 -29 0 -13 -5 -27 -10 -30 -6 -4 -8 -10 -5 -15 3 -5 1 -11
-5 -15 -6 -4 -8 -11 -4 -16 3 -5 1 -15 -4 -22 -8 -9 -28 -70 -37 -107 -2 -9
-36 -115 -42 -130 -4 -8 -7 -17 -8 -20 -1 -3 -6 -20 -10 -37 -4 -18 -12 -33
-17 -33 -5 0 -7 -4 -4 -9 4 -7 -31 -126 -62 -211 -3 -8 -6 -17 -6 -20 -10 -45
-31 -100 -37 -100 -5 0 -6 -6 -3 -14 3 -8 0 -17 -5 -21 -6 -3 -9 -10 -6 -15 3
-5 0 -20 -7 -32 -7 -13 -13 -27 -14 -33 0 -5 -4 -17 -7 -25 -3 -8 -18 -55 -32
-105 -34 -112 -34 -114 -36 -123 0 -4 -5 -13 -11 -19 -6 -7 -7 -13 -3 -13 4 0
2 -7 -5 -15 -7 -8 -9 -15 -6 -15 4 0 2 -9 -4 -21 -6 -11 -13 -28 -15 -37 -2
-9 -10 -36 -19 -59 -8 -24 -13 -43 -9 -43 3 0 0 -7 -7 -15 -6 -8 -9 -19 -5
-25 3 -5 2 -10 -3 -10 -8 0 -58 -158 -54 -172 1 -5 -3 -8 -10 -8 -6 0 -8 -3
-5 -7 4 -3 2 -12 -4 -20 -6 -7 -9 -13 -5 -13 3 0 0 -15 -8 -34 -8 -19 -12 -37
-8 -40 3 -3 1 -6 -5 -6 -5 0 -10 -6 -11 -12 -1 -19 -8 -45 -35 -123 -13 -38
-30 -91 -38 -117 -7 -27 -16 -48 -20 -48 -4 0 -5 -9 -2 -20 3 -11 0 -20 -6
-20 -6 0 -10 -3 -9 -7 2 -10 -22 -94 -30 -108 -4 -5 -7 -17 -8 -25 0 -8 -4
-22 -7 -30 -14 -32 -77 -234 -77 -247 0 -7 -4 -13 -10 -13 -5 0 -7 -7 -4 -15
4 -8 2 -15 -4 -15 -6 0 -9 -8 -8 -17 2 -10 -4 -28 -12 -41 -8 -12 -12 -25 -8
-29 3 -4 -1 -17 -9 -30 -9 -13 -13 -23 -11 -23 3 0 -2 -17 -11 -37 -8 -21 -15
-40 -14 -43 1 -5 -25 -91 -36 -120 -4 -8 -7 -17 -8 -20 -1 -3 -6 -20 -10 -37
-4 -18 -12 -33 -17 -33 -5 0 -7 -4 -4 -9 4 -5 1 -22 -5 -38 -7 -15 -13 -32
-14 -38 -7 -32 -79 -251 -84 -255 -3 -3 -7 -14 -9 -25 -4 -28 -7 -37 -19 -60
-5 -11 -8 -26 -6 -32 3 -7 0 -13 -7 -13 -6 0 -8 -5 -5 -10 4 -6 1 -17 -5 -25
-7 -8 -9 -15 -6 -15 4 0 2 -9 -4 -21 -6 -11 -13 -28 -15 -37 -2 -9 -17 -60
-34 -112 -17 -52 -31 -100 -31 -107 0 -7 -4 -13 -9 -13 -5 0 -8 -8 -7 -17 2
-9 -4 -30 -12 -46 -8 -15 -15 -39 -16 -53 0 -13 -4 -24 -7 -24 -6 0 -27 -67
-32 -100 -2 -8 -5 -19 -8 -25 -7 -10 -29 -77 -33 -98 -2 -7 -8 -25 -15 -42 -7
-16 -13 -38 -14 -47 -1 -10 -5 -18 -10 -18 -5 0 -7 -7 -3 -15 3 -8 1 -15 -4
-15 -5 0 -7 -7 -4 -15 4 -8 1 -15 -7 -15 -7 0 -10 -3 -6 -6 3 -3 -2 -29 -12
-58 -20 -57 -62 -185 -66 -201 -1 -5 -6 -25 -10 -42 -4 -18 -12 -33 -18 -33
-6 0 -8 -3 -4 -6 3 -4 0 -22 -8 -41 -8 -19 -14 -37 -13 -41 1 -4 -2 -15 -5
-24 -4 -10 -10 -26 -14 -35 -3 -10 -7 -20 -8 -23 0 -3 -16 -52 -35 -110 -19
-58 -35 -108 -36 -112 -1 -5 -3 -11 -4 -15 -1 -5 -3 -12 -4 -18 -1 -5 -7 -23
-14 -38 -7 -16 -12 -34 -12 -41 0 -7 -3 -16 -7 -20 -4 -3 -8 -13 -10 -21 -4
-21 -9 -37 -16 -55 -7 -19 -31 -93 -32 -100 -2 -12 -67 -217 -75 -235 -5 -11
-32 -94 -60 -185 -29 -91 -63 -196 -76 -234 -13 -38 -21 -72 -19 -76 3 -5 1
-10 -3 -12 -8 -3 -73 -197 -70 -208 1 -3 -4 -14 -10 -26 -6 -11 -13 -34 -16
-49 -3 -16 -9 -31 -13 -34 -5 -3 -9 -15 -8 -26 0 -11 -3 -23 -7 -26 -5 -3 -9
-17 -10 -32 -1 -15 -6 -27 -10 -27 -4 0 -8 -6 -8 -12 0 -12 -53 -182 -67 -218
-3 -8 -5 -21 -4 -27 1 -7 -4 -13 -10 -13 -7 0 -10 -3 -6 -6 3 -3 -5 -36 -18
-73 -13 -36 -29 -86 -36 -111 -15 -54 -14 -51 -22 -70 -3 -8 -13 -40 -22 -70
-9 -30 -20 -63 -26 -72 -5 -10 -9 -27 -9 -38 0 -11 -4 -20 -9 -20 -6 0 -8 -9
-6 -20 2 -11 -1 -20 -6 -20 -5 0 -9 -6 -8 -12 1 -7 -1 -20 -4 -28 -4 -8 -25
-73 -47 -145 -48 -152 -47 -149 -48 -155 -1 -3 -8 -22 -17 -43 -8 -20 -12 -37
-9 -37 4 0 1 -7 -6 -15 -7 -8 -10 -22 -6 -30 3 -9 2 -13 -4 -10 -6 3 -11 -2
-12 -12 -2 -32 -4 -38 -18 -63 -7 -14 -12 -26 -11 -28 1 -1 -10 -42 -25 -90
-15 -48 -27 -90 -26 -94 1 -5 -2 -8 -7 -8 -6 0 -8 -9 -6 -20 2 -11 0 -20 -4
-20 -7 0 -35 -92 -36 -115 0 -5 -6 -16 -12 -23 -7 -7 -13 -22 -13 -33 0 -29
-1 -33 -10 -44 -4 -5 -11 -25 -15 -43 -3 -17 -11 -32 -16 -32 -6 0 -8 -4 -5
-8 3 -5 -2 -31 -10 -58 -9 -27 -16 -55 -17 -61 0 -7 -4 -13 -9 -13 -4 0 -7 -3
-6 -7 3 -13 -33 -127 -44 -140 -6 -7 -8 -13 -5 -13 4 0 -1 -19 -9 -42 -9 -24
-18 -54 -20 -67 -3 -14 -8 -29 -12 -35 -3 -6 -7 -15 -8 -21 -1 -5 -9 -29 -17
-52 -9 -22 -13 -44 -10 -47 4 -3 2 -6 -4 -6 -5 0 -10 -6 -11 -12 -1 -29 -12
-61 -24 -76 -10 -12 -10 -14 -1 -8 9 5 8 -2 -2 -21 -8 -15 -27 -68 -41 -118
-15 -49 -30 -94 -34 -100 -4 -5 -6 -18 -5 -27 2 -10 0 -18 -5 -18 -6 0 -21
-49 -19 -63 0 -1 -7 -18 -15 -38 -8 -20 -12 -39 -9 -43 4 -3 1 -6 -5 -6 -7 0
-12 -7 -12 -15 0 -9 -13 -57 -30 -107 -16 -50 -30 -97 -30 -104 0 -8 -4 -14
-9 -14 -6 0 -10 -8 -10 -18 -1 -38 -5 -52 -13 -52 -4 0 -8 -7 -8 -15 0 -8 -19
-70 -41 -137 -23 -68 -41 -131 -41 -140 0 -10 -3 -20 -9 -23 -5 -4 -9 -14 -9
-24 0 -10 -7 -32 -15 -47 -8 -16 -15 -37 -15 -46 0 -9 -5 -20 -10 -23 -6 -4
-8 -10 -5 -15 3 -5 1 -11 -5 -15 -6 -4 -8 -10 -5 -15 3 -4 -4 -29 -15 -54 -10
-25 -17 -46 -15 -46 2 0 -12 -44 -31 -97 -20 -54 -36 -108 -37 -120 0 -13 -5
-23 -9 -23 -4 0 -7 -3 -6 -7 0 -5 -1 -15 -5 -23 -6 -18 -101 -312 -103 -322
-1 -5 -3 -10 -4 -13 -1 -3 -3 -8 -4 -12 -1 -5 -5 -14 -9 -21 -5 -6 -6 -12 -3
-12 2 0 -5 -24 -15 -53 -11 -28 -22 -62 -25 -73 -2 -12 -11 -38 -19 -58 -8
-20 -15 -39 -15 -43 0 -8 -18 -68 -27 -93 -4 -8 -7 -17 -8 -20 0 -3 -12 -39
-25 -80 -13 -41 -25 -77 -25 -80 -1 -3 -27 -86 -60 -184 -32 -99 -58 -186 -58
-193 0 -7 -4 -13 -8 -13 -4 0 -10 -17 -15 -37 -9 -44 -8 -43 -18 -65 -4 -9 -9
-22 -10 -30 -2 -7 -6 -20 -9 -28 -3 -8 -15 -46 -27 -85 -12 -38 -24 -77 -27
-85 -4 -8 -5 -18 -5 -22 1 -5 -3 -8 -9 -8 -5 0 -8 -4 -5 -9 3 -5 -1 -25 -9
-45 -8 -20 -15 -38 -15 -41 0 -3 -1 -7 -1 -10 -1 -3 -3 -9 -4 -15 -1 -5 -4
-12 -5 -15 -1 -3 -4 -9 -5 -15 -1 -5 -4 -12 -5 -15 -1 -3 -3 -8 -5 -12 -1 -5
-7 -21 -13 -36 -7 -16 -12 -33 -12 -38 0 -5 -9 -34 -19 -64 -11 -30 -18 -55
-16 -55 2 0 -2 -12 -10 -27 -8 -15 -12 -30 -9 -35 3 -4 1 -8 -4 -8 -5 0 -9 -6
-10 -12 -1 -15 -10 -52 -12 -55 -2 -2 -3 -6 -4 -10 -4 -16 -79 -249 -87 -268
-4 -11 -15 -45 -24 -75 -9 -30 -20 -62 -24 -70 -4 -8 -7 -23 -5 -33 1 -11 0
-16 -4 -13 -4 5 -40 -97 -65 -189 -2 -5 -27 -84 -57 -175 -29 -91 -52 -166
-51 -168 1 -1 -6 -16 -14 -32 -8 -16 -15 -33 -15 -37 -1 -13 -21 -84 -32 -112
-6 -14 -13 -35 -15 -45 -2 -11 -9 -26 -16 -35 -8 -10 -8 -13 0 -8 6 4 3 -11
-8 -32 -10 -22 -19 -45 -19 -51 0 -6 -9 -39 -21 -73 -12 -34 -22 -66 -24 -72
-1 -5 -5 -17 -8 -25 -16 -41 -50 -157 -50 -167 0 -7 -4 -13 -9 -13 -4 0 -8 -9
-8 -20 0 -10 -4 -29 -9 -42 -13 -32 -24 -61 -27 -73 -7 -28 -64 -204 -73 -227
-6 -16 -8 -28 -5 -28 4 0 1 -7 -6 -15 -7 -8 -9 -15 -5 -15 4 0 3 -6 -3 -12 -6
-7 -10 -15 -10 -18 -1 -3 -5 -18 -11 -33 -6 -16 -11 -32 -11 -36 0 -4 -20 -69
-45 -144 -25 -76 -45 -144 -45 -152 0 -8 -4 -15 -8 -15 -5 0 -9 -6 -10 -12 -2
-23 -7 -43 -15 -56 -5 -6 -6 -16 -2 -21 3 -5 1 -12 -5 -16 -6 -4 -8 -11 -5
-16 4 -5 2 -9 -3 -9 -5 0 -9 -6 -9 -12 0 -7 -20 -71 -44 -143 -23 -71 -44
-136 -45 -143 -1 -8 -6 -21 -10 -30 -10 -24 -15 -44 -17 -64 -1 -10 -5 -18 -9
-18 -4 0 -8 -6 -8 -13 0 -7 -15 -59 -34 -115 -18 -55 -31 -104 -28 -107 3 -3
1 -5 -5 -5 -5 0 -10 -7 -11 -15 -1 -8 -3 -22 -4 -30 -1 -8 -5 -15 -9 -15 -5 0
-6 -7 -3 -15 4 -8 1 -15 -7 -15 -7 0 -10 -3 -6 -6 3 -4 0 -23 -8 -43 -21 -55
-85 -265 -85 -279 0 -6 -5 -12 -11 -12 -5 0 -8 -4 -5 -8 3 -5 -1 -21 -9 -36
-10 -18 -10 -24 -2 -19 9 5 9 3 1 -8 -18 -24 -46 -108 -39 -119 3 -5 2 -10 -3
-10 -7 0 -43 -101 -43 -122 0 -4 -8 -28 -19 -53 -11 -25 -19 -49 -18 -53 1 -4
-1 -14 -5 -22 -14 -37 -31 -96 -29 -102 1 -5 -3 -8 -9 -8 -6 0 -9 -7 -6 -15 4
-8 1 -17 -4 -21 -6 -3 -9 -15 -6 -25 3 -11 1 -19 -3 -19 -5 0 -16 -26 -25 -57
-8 -32 -20 -69 -26 -83 -6 -14 -13 -36 -16 -49 -2 -14 -7 -29 -11 -35 -7 -11
-12 -32 -14 -53 -1 -7 -5 -13 -9 -13 -4 0 -6 -9 -4 -20 2 -11 -1 -20 -7 -20
-6 0 -9 -3 -5 -6 3 -4 0 -19 -9 -35 -8 -16 -14 -30 -14 -31 1 -2 -1 -10 -4
-18 -15 -46 -48 -161 -48 -167 0 -5 -4 -15 -8 -24 -9 -17 -9 -17 85 -69 33
-18 76 -43 95 -55 19 -12 235 -138 480 -280 245 -141 457 -266 472 -276 15
-11 29 -19 32 -19 3 0 40 -21 83 -46 43 -25 85 -49 93 -54 214 -126 292 -170
299 -170 5 0 11 -4 13 -8 2 -6 142 -89 493 -292 17 -10 65 -38 108 -64 43 -25
80 -46 84 -46 4 0 14 -6 22 -14 9 -7 41 -27 71 -43 55 -30 346 -200 471 -274
36 -21 71 -39 77 -39 7 0 12 -4 12 -8 0 -5 15 -16 33 -25 17 -9 46 -25 62 -35
44 -26 160 -93 214 -123 25 -15 60 -35 77 -45 17 -11 93 -55 169 -99 76 -44
154 -90 174 -102 20 -13 43 -26 51 -30 8 -4 49 -27 90 -51 41 -25 91 -54 110
-65 19 -10 115 -66 214 -124 98 -57 186 -105 195 -105 9 0 72 2 141 6 69 4
161 9 205 11 117 6 299 15 385 20 41 2 125 6 185 10 61 3 146 8 190 10 44 3
134 8 200 10 66 3 152 7 190 10 85 5 237 13 570 30 103 5 233 12 365 20 41 3
125 7 185 10 61 3 151 7 200 10 50 3 133 7 185 10 52 2 138 7 190 10 52 3 140
7 195 10 55 3 143 7 195 10 206 11 279 15 375 20 55 3 141 7 190 10 50 2 140
7 200 10 61 3 144 8 185 10 41 2 127 7 190 10 63 3 151 8 195 10 44 2 127 7
185 10 193 10 304 16 386 20 45 3 124 7 175 10 131 6 299 15 397 20 167 10
250 14 367 20 66 3 154 8 195 10 41 2 122 7 180 10 58 3 143 7 190 10 47 2
137 7 200 10 63 3 149 8 190 10 41 3 129 7 195 10 66 3 149 8 185 10 36 2 117
7 180 10 203 10 303 15 400 21 52 3 133 7 180 9 47 3 131 7 186 10 101 6 103
5 203 -35 56 -22 109 -44 119 -49 9 -6 76 -33 147 -61 72 -29 157 -63 190 -77
33 -14 69 -29 80 -33 11 -4 46 -20 78 -34 32 -14 60 -26 64 -26 3 0 33 -12 67
-26 102 -44 117 -50 236 -98 63 -26 130 -54 148 -62 24 -11 53 -14 115 -10 45
3 125 8 177 11 52 3 138 7 190 10 113 6 203 11 365 20 66 3 149 8 185 10 36 2
119 7 185 10 66 3 143 8 170 10 28 2 111 7 185 10 74 3 158 8 185 10 28 2 109
7 180 10 72 3 157 8 190 10 33 3 116 7 185 10 69 3 145 8 170 10 25 2 108 7
185 11 77 3 158 7 180 9 36 2 195 11 375 20 36 2 108 6 160 9 52 3 142 8 200
11 58 3 139 7 180 10 41 3 120 7 175 10 55 3 141 7 190 10 50 3 135 7 190 10
55 3 136 8 180 10 44 3 123 7 175 10 90 4 163 8 360 20 81 5 144 8 365 20 55
3 138 7 185 10 151 9 263 15 360 20 52 3 138 7 190 10 128 8 222 13 365 20 66
3 152 8 190 10 39 2 120 7 180 10 61 3 139 8 175 10 36 2 115 7 175 10 61 2
146 7 190 10 109 6 251 14 365 20 52 3 131 7 175 10 44 2 127 7 185 10 212 11
287 15 360 20 41 3 125 7 185 10 106 4 215 11 375 21 41 2 118 6 170 9 184 9
306 16 370 20 36 2 117 7 180 10 63 2 147 7 185 10 39 2 117 7 175 10 100 5
177 9 375 21 50 2 131 7 180 9 50 3 126 7 170 10 44 2 134 7 200 10 66 3 149
8 185 10 36 2 110 7 165 10 55 3 141 7 190 10 50 3 133 7 185 10 135 7 251 14
355 20 116 6 256 14 370 20 50 3 132 7 183 10 50 3 136 7 190 10 53 3 129 7
167 10 39 2 122 7 185 10 63 3 151 7 195 10 44 2 125 7 180 10 55 3 136 8 180
10 44 3 127 8 185 10 58 3 139 7 180 10 41 3 116 7 165 10 50 2 137 7 195 10
58 3 141 8 185 10 190 10 320 17 322 19 1 1 -15 41 -36 88 -21 48 -36 89 -33
92 3 4 0 6 -6 6 -7 0 -12 6 -12 13 0 8 -6 27 -14 43 -8 16 -36 79 -61 139 -26
61 -55 128 -65 150 -10 23 -20 47 -22 55 -2 8 -5 17 -8 20 -3 3 -16 32 -29 65
-13 33 -37 86 -52 117 -15 31 -24 59 -21 62 3 4 0 6 -7 6 -7 0 -10 4 -6 9 3 5
1 12 -5 16 -5 3 -10 15 -10 26 0 10 -4 19 -10 19 -5 0 -10 6 -10 14 0 7 -12
40 -26 72 -14 33 -25 60 -25 62 1 1 -5 15 -13 30 -25 48 -76 163 -76 172 0 5
-11 29 -24 54 -14 26 -22 46 -20 46 2 0 -6 19 -18 42 -12 24 -21 49 -20 56 2
6 -2 12 -8 12 -6 0 -8 5 -5 10 3 6 1 10 -5 10 -6 0 -9 4 -5 9 3 5 1 12 -5 16
-5 3 -10 15 -10 26 0 10 -4 19 -10 19 -5 0 -10 6 -10 14 0 8 -13 43 -28 78
-16 34 -30 68 -31 73 -2 6 -7 16 -13 22 -6 7 -7 13 -4 13 4 0 0 12 -8 28 -16
28 -76 160 -76 166 0 2 -12 30 -26 62 -14 33 -25 60 -25 62 1 1 -6 17 -16 35
-9 17 -18 35 -19 40 -1 4 -3 10 -4 15 -1 4 -2 10 -1 15 0 4 -3 7 -9 7 -5 0
-10 5 -10 11 0 9 -14 43 -76 184 -9 22 -18 43 -18 47 -1 3 -4 10 -8 14 -5 4
-8 16 -8 26 0 10 -4 18 -10 18 -5 0 -10 6 -10 13 0 13 -64 164 -74 174 -3 4
-6 15 -6 25 0 10 -5 18 -10 18 -6 0 -9 3 -8 8 1 4 -4 18 -12 32 -7 14 -13 26
-12 27 1 2 -7 23 -18 49 -11 25 -20 47 -20 50 0 2 -14 34 -31 71 -18 38 -32
74 -32 81 0 6 -4 12 -9 12 -4 0 -8 5 -8 11 0 10 -28 78 -82 199 -7 14 -12 27
-13 30 0 3 -6 15 -13 26 -6 12 -8 24 -5 28 3 3 1 6 -5 6 -7 0 -11 3 -10 8 1 4
-6 25 -16 47 -10 22 -36 83 -58 135 -22 52 -51 120 -65 150 -14 30 -26 61 -26
68 0 6 -4 12 -9 12 -4 0 -8 5 -8 11 0 5 -11 34 -24 62 -13 29 -29 69 -35 90
-7 20 -17 37 -23 37 -6 0 -8 3 -5 6 3 4 1 16 -5 28 -7 11 -13 24 -14 29 -1 4
-3 9 -4 12 -1 3 -3 8 -5 13 -1 4 -13 32 -27 62 -14 30 -36 82 -49 115 -13 33
-27 62 -32 63 -4 2 -5 8 -1 13 3 5 0 9 -5 9 -6 0 -10 3 -9 8 1 8 -6 29 -32 87
-10 22 -37 87 -61 145 -24 58 -47 106 -51 108 -4 2 -8 10 -8 18 0 7 -13 42
-28 76 -16 35 -40 90 -53 123 -13 33 -27 62 -31 63 -5 2 -8 10 -8 17 0 7 -7
25 -14 41 -8 15 -13 31 -10 36 3 4 1 8 -4 8 -5 0 -12 8 -15 17 -7 24 -58 144
-91 216 -14 32 -26 60 -26 62 0 2 -13 34 -30 70 -16 36 -30 72 -30 81 0 8 -7
17 -15 20 -8 4 -13 10 -10 14 2 4 -4 25 -15 47 -10 22 -20 46 -22 54 -2 8 -5
16 -8 19 -3 3 -30 64 -59 135 -30 72 -58 134 -62 139 -5 6 -9 17 -9 25 0 8 -6
22 -13 30 -7 9 -19 34 -26 56 -8 22 -21 56 -29 75 -9 19 -15 38 -14 43 1 4 -2
7 -8 7 -5 0 -10 9 -10 19 0 11 -4 22 -9 26 -5 3 -12 19 -16 35 -4 17 -11 30
-17 30 -6 0 -8 7 -5 15 4 8 2 17 -2 19 -5 3 -28 53 -51 111 -24 58 -47 105
-51 105 -5 0 -6 7 -3 15 4 8 1 15 -5 15 -7 0 -11 6 -9 12 1 7 -8 32 -20 56
-13 23 -20 47 -17 52 3 6 2 10 -4 10 -5 0 -19 26 -31 57 -12 32 -26 63 -31 69
-5 6 -6 14 -2 17 3 4 0 7 -7 7 -7 0 -11 3 -7 6 3 4 -5 28 -19 55 -13 27 -21
49 -17 49 5 0 3 4 -3 8 -6 4 -22 36 -36 72 -15 36 -35 86 -47 113 -11 26 -19
49 -18 51 1 1 -4 10 -12 19 -7 10 -10 17 -5 17 5 0 3 4 -4 9 -7 4 -15 14 -16
22 -3 16 -8 28 -65 159 -22 52 -41 101 -41 108 0 6 -5 12 -11 12 -5 0 -7 5 -4
10 3 6 1 10 -4 10 -6 0 -10 4 -9 8 2 4 -7 30 -19 58 -69 156 -106 240 -108
249 -2 8 -29 72 -65 150 -32 71 -50 115 -50 124 0 6 -4 11 -8 11 -4 0 -8 10
-9 22 -1 11 -6 24 -10 27 -4 3 -13 20 -19 36 -35 92 -100 240 -106 243 -5 2
-8 9 -8 16 0 7 -6 26 -14 42 -8 16 -40 90 -71 164 -32 74 -66 155 -77 180 -11
25 -24 54 -28 65 -4 11 -20 45 -34 76 -14 31 -26 59 -26 62 0 3 -13 34 -29 69
-16 34 -27 66 -25 70 3 5 0 8 -5 8 -6 0 -11 5 -11 10 0 10 -32 87 -51 122 -5
10 -9 25 -9 33 0 8 -4 15 -10 15 -5 0 -10 5 -10 11 0 11 -30 83 -71 175 -11
22 -19 44 -19 49 0 5 -8 17 -17 28 -10 11 -13 17 -6 14 6 -4 1 13 -12 37 -13
24 -21 47 -18 50 4 3 1 6 -5 6 -7 0 -11 3 -10 8 1 8 3 4 -74 182 -33 74 -61
144 -64 155 -2 11 -8 21 -14 23 -5 2 -10 9 -10 17 0 7 -12 39 -27 71 -15 33
-28 64 -29 69 -1 6 -16 40 -33 77 -17 37 -42 96 -57 130 -14 35 -33 79 -41 98
-35 78 -53 121 -104 240 -29 69 -56 129 -61 135 -4 5 -8 17 -8 27 0 10 -5 18
-12 18 -6 0 -9 3 -6 6 4 3 -14 51 -39 107 -46 105 -65 148 -68 157 -1 3 -10
23 -20 45 -10 22 -19 42 -20 45 -9 27 -23 59 -61 145 -9 22 -18 42 -18 45 -1
3 -10 23 -20 45 -10 22 -22 49 -26 60 -5 11 -18 40 -28 65 -34 79 -51 120 -50
123 1 1 -6 16 -15 32 -9 17 -37 80 -63 140 -25 61 -55 130 -66 155 -11 25 -26
59 -33 75 -7 17 -22 51 -34 77 -11 26 -22 53 -23 60 -2 7 -6 15 -9 18 -3 3
-16 33 -28 68 -13 34 -27 62 -32 62 -5 0 -8 3 -7 8 1 4 -4 23 -11 42 -8 19
-14 38 -15 42 -1 3 -4 10 -8 14 -5 4 -8 16 -8 26 0 10 -4 18 -9 18 -5 0 -19
29 -32 65 -12 36 -25 65 -29 65 -3 0 -6 10 -7 22 -1 11 -8 25 -15 29 -7 5 -9
9 -5 9 4 0 2 10 -5 23 -7 12 -13 24 -13 27 0 3 -6 15 -13 26 -6 12 -8 24 -5
28 3 3 1 6 -5 6 -7 0 -12 5 -12 11 0 6 -7 27 -16 47 -9 21 -20 46 -25 57 -4
11 -21 50 -38 87 -16 37 -27 69 -23 72 3 3 1 6 -5 6 -6 0 -14 11 -17 25 -4 14
-17 49 -30 78 -13 28 -38 86 -56 127 -18 41 -38 88 -46 104 -8 16 -14 35 -14
42 0 7 -3 14 -7 16 -5 2 -23 41 -42 88 -19 47 -40 95 -48 108 -8 12 -11 27 -8
32 3 6 3 10 -2 10 -11 0 -34 51 -27 61 3 5 1 9 -5 9 -5 0 -15 17 -22 37 -6 20
-21 57 -32 82 -12 25 -22 48 -22 51 -1 3 -11 26 -23 53 -36 78 -62 137 -62
141 0 2 -10 25 -22 52 -12 27 -23 51 -23 54 -1 6 -34 79 -46 102 -5 10 -9 24
-9 32 0 8 -5 16 -10 18 -6 2 -12 12 -14 23 -4 19 -19 55 -72 173 -13 29 -24
59 -24 67 0 8 -4 15 -10 15 -5 0 -10 6 -10 13 0 8 -6 27 -14 43 -18 36 -38 89
-34 89 1 0 -8 17 -20 38 -13 20 -21 37 -18 37 3 0 -5 19 -18 43 -13 23 -23 44
-23 47 1 3 -17 48 -40 100 -57 130 -66 154 -65 163 1 4 -3 7 -9 7 -5 0 -7 5
-4 10 3 6 1 10 -4 10 -6 0 -11 6 -11 14 0 8 -13 43 -29 78 -15 35 -38 89 -51
121 -12 31 -27 57 -32 57 -5 0 -6 4 -3 10 6 10 1 21 -41 100 -10 19 -17 36
-16 38 2 1 -7 24 -19 50 -12 26 -29 67 -39 92 -17 42 -112 262 -147 340 -8 19
-21 49 -28 65 -7 17 -20 48 -30 70 -10 22 -23 54 -30 70 -7 17 -20 46 -28 65
-30 67 -40 95 -39 103 1 4 -3 7 -9 7 -5 0 -7 5 -4 10 3 6 1 10 -4 10 -6 0 -10
3 -10 8 1 4 0 10 -1 15 -1 4 -3 10 -5 15 -1 4 -13 32 -27 62 -14 30 -36 82
-49 115 -13 33 -28 63 -34 67 -5 4 -6 8 -1 8 5 0 3 6 -3 13 -6 8 -8 17 -4 20
3 4 1 7 -5 7 -7 0 -12 9 -12 19 0 11 -5 23 -10 26 -6 4 -8 11 -5 16 4 5 2 9
-4 9 -6 0 -14 12 -17 28 -4 15 -18 48 -31 75 -13 26 -20 47 -17 47 4 0 0 8 -9
18 -8 9 -15 19 -14 22 1 3 -29 76 -66 162 -37 86 -67 161 -67 167 0 6 -5 11
-11 11 -6 0 -9 7 -5 15 3 8 1 15 -5 15 -6 0 -7 5 -4 10 3 6 3 10 -2 10 -4 0
-19 28 -32 63 -13 34 -36 87 -50 117 -14 30 -26 58 -27 63 -1 4 -3 10 -4 15
-1 4 -2 10 -1 15 0 4 -4 7 -10 7 -5 0 -8 4 -5 9 3 5 -1 14 -9 21 -8 7 -15 18
-15 25 0 7 -12 39 -26 71 -37 84 -47 107 -50 123 -1 7 -7 18 -13 24 -6 6 -11
19 -11 29 0 10 -4 18 -10 18 -5 0 -10 6 -10 13 0 7 -23 65 -51 127 -28 63 -52
124 -54 134 -3 11 -10 23 -16 26 -6 4 -10 10 -8 14 1 4 -9 33 -23 64 -23 51
-58 133 -93 217 -7 17 -25 57 -40 90 -15 33 -39 89 -53 125 -14 36 -28 67 -31
70 -3 3 -7 10 -8 16 -1 7 -13 36 -26 65 -13 30 -41 95 -63 144 -21 50 -41 92
-44 95 -3 3 -6 13 -8 23 -2 11 -16 47 -32 80 -47 103 -70 157 -70 162 0 2 -12
30 -27 62 -15 32 -27 60 -28 63 0 3 -4 11 -8 18 -5 6 -5 12 0 12 4 0 3 4 -2 8
-6 4 -25 43 -44 87 -45 107 -60 144 -79 184 -8 18 -15 39 -15 47 0 7 -4 11 -8
8 -4 -2 -11 10 -14 28 -4 18 -11 38 -15 43 -3 6 -20 42 -36 80 -15 39 -33 73
-39 77 -5 4 -7 8 -2 8 4 0 1 14 -8 30 -9 17 -12 30 -8 30 5 0 3 4 -3 8 -6 4
-35 63 -64 132 -28 69 -60 143 -70 165 -15 35 -35 82 -87 205 -9 19 -21 48
-29 64 -8 16 -14 35 -14 43 0 7 -4 13 -10 13 -5 0 -10 7 -10 15 0 8 -4 23 -10
33 -10 19 -40 88 -60 142 -7 19 -17 39 -22 45 -4 5 -8 17 -8 27 0 10 -4 18
-10 18 -5 0 -10 6 -10 14 0 7 -14 44 -30 82 -17 38 -35 78 -39 89 -5 11 -17
38 -27 60 -10 22 -17 43 -16 48 1 4 -3 7 -10 7 -6 0 -9 3 -6 6 4 3 -7 36 -24
72 -17 37 -41 91 -54 120 -13 29 -24 55 -24 58 0 3 -14 36 -31 72 -18 37 -32
73 -32 80 0 6 -4 12 -9 12 -4 0 -7 3 -6 8 1 4 -6 25 -16 47 -10 22 -22 49 -26
60 -4 11 -20 47 -36 80 -15 33 -29 63 -30 68 -1 4 -3 9 -4 12 -1 3 -3 8 -4 13
-1 4 -9 23 -18 42 -35 77 -56 127 -69 163 -7 20 -17 37 -21 37 -4 0 -7 3 -6 8
0 4 -2 15 -5 25 -11 28 -16 47 -16 53 0 4 -3 10 -8 13 -5 3 -28 53 -52 111
-25 58 -54 128 -67 155 -12 28 -43 100 -69 160 -25 61 -55 129 -66 152 -10 23
-20 48 -21 55 -2 7 -6 15 -9 18 -3 3 -21 43 -40 90 -19 47 -37 87 -41 88 -5 2
-8 15 -8 28 0 13 -4 24 -10 24 -5 0 -10 6 -10 13 0 8 -7 28 -16 46 -9 17 -17
38 -18 45 -1 8 -7 20 -13 27 -6 8 -14 25 -18 39 -4 14 -19 50 -33 80 -13 30
-30 69 -37 85 -7 17 -24 55 -37 85 -14 30 -35 81 -47 113 -13 31 -27 57 -32
57 -5 0 -6 7 -3 15 4 8 1 15 -5 15 -6 0 -8 7 -5 15 4 8 1 15 -7 15 -7 0 -9 3
-6 7 4 3 2 12 -4 20 -6 7 -8 13 -3 13 5 0 4 4 -1 8 -12 8 -105 222 -105 240 0
7 -7 12 -15 12 -8 0 -15 -5 -15 -11 0 -5 -9 -29 -19 -52 -10 -23 -30 -71 -44
-107 -14 -36 -31 -78 -38 -95 -7 -16 -12 -33 -11 -37 1 -5 -2 -8 -8 -8 -5 0
-10 -5 -10 -12 0 -17 -129 -330 -143 -347 -10 -12 -9 -13 1 -7 11 7 11 4 0
-15 -7 -13 -17 -27 -21 -30 -5 -3 -8 -9 -7 -13 2 -7 -50 -144 -79 -206 -9 -19
-16 -37 -17 -40 -1 -3 -7 -21 -15 -40 -7 -19 -12 -38 -11 -42 1 -5 -2 -8 -7
-8 -5 0 -16 -21 -24 -47 -8 -27 -38 -102 -67 -168 -28 -66 -53 -124 -54 -130
-1 -5 -11 -28 -21 -50 -10 -22 -19 -44 -20 -50 -2 -9 -7 -22 -37 -92 -6 -16
-12 -30 -12 -33 -1 -3 -5 -11 -9 -17 -5 -7 -5 -13 0 -13 4 0 3 -4 -2 -8 -6 -4
-25 -43 -42 -87 -18 -44 -40 -98 -49 -120 -10 -22 -19 -46 -20 -53 -1 -7 -10
-25 -19 -39 -12 -18 -13 -23 -4 -18 9 4 9 2 -1 -7 -8 -7 -16 -20 -18 -28 -2
-8 -32 -85 -67 -171 -36 -85 -65 -161 -65 -167 0 -7 -4 -12 -8 -12 -5 0 -9 -6
-9 -12 0 -19 -86 -222 -95 -226 -5 -2 -5 -8 -2 -13 3 -6 -2 -20 -13 -31 -12
-14 -13 -18 -3 -13 13 8 13 7 0 -9 -8 -10 -15 -23 -16 -30 -2 -11 -72 -182
-100 -243 -8 -17 -14 -33 -14 -36 0 -2 -7 -22 -16 -43 -9 -22 -16 -41 -16 -44
1 -3 -5 -14 -12 -25 -7 -11 -21 -42 -31 -70 -10 -27 -25 -66 -34 -85 -8 -19
-15 -38 -15 -42 -1 -3 -4 -10 -8 -14 -5 -4 -8 -16 -8 -26 0 -10 -3 -18 -8 -18
-6 0 -26 -48 -35 -85 -1 -5 -7 -17 -12 -25 -5 -8 -10 -20 -11 -26 -1 -6 -9
-27 -17 -45 -13 -29 -25 -60 -32 -79 -1 -3 -10 -23 -20 -45 -9 -22 -17 -41
-17 -42 0 -1 -17 -44 -39 -95 -23 -51 -42 -97 -43 -103 -7 -29 -18 -55 -25
-55 -4 0 -7 -8 -8 -17 -1 -10 -22 -67 -48 -127 -25 -60 -45 -115 -45 -123 0
-7 -4 -13 -10 -13 -5 0 -10 -6 -10 -14 0 -7 -8 -31 -17 -52 -9 -22 -17 -41
-18 -44 -1 -3 -9 -22 -19 -43 -9 -21 -14 -43 -10 -49 4 -7 3 -8 -4 -4 -7 4
-12 2 -12 -3 0 -14 -200 -502 -211 -517 -5 -6 -6 -14 -2 -18 4 -4 1 -11 -6
-16 -8 -4 -15 -16 -16 -27 -2 -18 -21 -67 -53 -133 -9 -19 -16 -37 -17 -40 0
-3 -6 -18 -12 -35 -17 -42 -36 -89 -38 -95 -1 -3 -10 -23 -20 -45 -10 -22 -19
-42 -19 -45 -1 -3 -9 -26 -20 -50 -20 -49 -27 -67 -46 -117 -7 -18 -17 -33
-23 -33 -6 0 -8 -3 -4 -6 3 -3 -3 -26 -13 -50 -11 -24 -20 -48 -21 -52 -2 -8
-17 -46 -35 -87 -7 -16 -20 -46 -28 -67 -9 -20 -16 -43 -16 -51 0 -9 -4 -18
-9 -22 -5 -3 -12 -19 -16 -35 -4 -17 -11 -30 -16 -30 -6 0 -7 -4 -4 -10 3 -5
1 -10 -5 -10 -6 0 -9 -4 -6 -8 3 -5 -2 -21 -10 -36 -7 -16 -14 -35 -14 -42 0
-8 -4 -14 -10 -14 -5 0 -9 -3 -8 -7 3 -9 -32 -103 -44 -119 -4 -6 -5 -14 -1
-17 3 -4 1 -7 -5 -7 -7 0 -11 -3 -11 -7 1 -5 0 -10 -1 -13 -1 -3 -3 -14 -5
-25 -2 -11 -9 -21 -14 -23 -6 -2 -11 -10 -11 -19 0 -8 -6 -29 -14 -46 -17 -39
-52 -126 -67 -164 -10 -27 -11 -27 -22 -8 -6 11 -12 22 -13 25 -1 3 -5 20 -9
38 -4 17 -11 32 -15 32 -3 0 -7 6 -8 13 -1 14 -7 37 -15 57 -3 8 -22 62 -42
120 -20 58 -39 112 -42 120 -3 8 -5 19 -4 24 1 5 -3 12 -9 16 -6 4 -12 18 -14
31 -1 13 -8 34 -14 45 -6 12 -8 24 -5 28 3 3 2 6 -4 6 -5 0 -10 6 -10 13 -1
10 -50 156 -70 207 -3 8 -8 24 -10 34 -2 11 -8 25 -14 33 -6 7 -9 13 -5 13 4
0 -1 14 -9 30 -9 17 -13 35 -10 40 3 6 1 10 -5 10 -7 0 -10 6 -7 14 3 8 2 16
-4 18 -5 2 -11 12 -13 23 -6 29 -57 177 -68 198 -5 10 -11 26 -13 35 -5 19
-111 329 -122 352 -3 8 -7 18 -8 23 -2 4 -4 9 -5 12 -1 3 -4 10 -5 15 -1 6 -3
11 -4 13 -2 1 -5 13 -7 27 -2 13 -8 27 -12 30 -7 5 -13 25 -16 50 0 8 -5 18
-9 21 -5 3 -10 12 -11 20 -2 8 -6 21 -9 29 -11 29 -41 125 -43 139 -2 8 -7 17
-12 20 -5 3 -8 14 -6 24 1 9 -2 17 -8 17 -6 0 -8 6 -5 14 3 7 2 17 -3 22 -4 5
-27 65 -50 134 -24 69 -47 130 -51 136 -5 6 -7 13 -4 16 3 3 -1 18 -9 33 -8
16 -13 32 -10 37 3 4 0 8 -7 8 -7 0 -10 3 -6 6 3 4 0 19 -9 35 -8 16 -12 29
-8 29 4 0 2 6 -4 13 -5 6 -12 23 -14 37 -1 14 -6 27 -9 30 -3 3 -19 43 -34 90
-15 47 -32 90 -37 96 -5 7 -8 16 -6 20 1 5 -3 18 -9 29 -6 11 -12 23 -12 27
-8 46 -15 68 -22 68 -5 0 -8 3 -7 8 3 9 -59 201 -72 224 -6 10 -10 25 -10 33
0 8 -5 15 -12 15 -6 0 -9 3 -5 6 3 4 0 22 -8 41 -8 20 -15 44 -15 54 0 11 -4
19 -10 19 -5 0 -10 13 -10 28 0 15 -4 32 -8 38 -11 11 -73 191 -75 215 -1 10
-7 21 -15 24 -7 3 -10 10 -7 15 4 6 2 16 -4 23 -5 7 -12 24 -15 37 -3 14 -23
75 -45 135 -21 61 -41 117 -44 125 -3 8 -8 24 -13 35 -4 11 -8 27 -10 35 -2 8
-7 23 -13 35 -8 16 -30 80 -36 105 -1 3 -5 12 -8 20 -9 20 -87 241 -92 260 -2
8 -27 80 -55 160 -29 80 -53 150 -54 155 -2 6 -9 24 -15 40 -14 33 -15 36 -26
83 -4 17 -11 32 -14 32 -4 0 -13 21 -19 48 -12 41 -81 243 -102 297 -27 66
-39 105 -34 105 4 0 2 6 -3 13 -6 6 -16 30 -22 52 -7 22 -16 49 -21 60 -17 42
-23 60 -21 69 1 4 -2 13 -7 20 -5 6 -33 81 -62 166 -29 85 -57 160 -62 167 -5
7 -7 16 -4 21 3 6 -1 15 -9 22 -8 7 -12 16 -9 22 3 5 0 16 -7 24 -6 8 -9 17
-6 21 4 3 2 12 -4 20 -6 7 -8 13 -3 13 5 0 4 4 -1 8 -6 4 -21 41 -35 82 -13
41 -27 80 -30 85 -4 6 -12 30 -19 55 -7 25 -17 53 -22 62 -5 10 -9 25 -9 33 0
8 -5 15 -11 15 -6 0 -9 6 -6 14 3 8 3 17 -1 21 -4 4 -7 10 -8 13 0 4 -3 14 -7
22 -3 8 -13 38 -22 65 -23 71 -105 306 -115 330 -5 11 -23 63 -41 115 -18 52
-36 97 -41 98 -4 2 -6 7 -3 12 3 5 0 21 -7 37 -6 15 -10 32 -9 37 1 4 -2 13
-7 20 -5 6 -26 61 -46 121 -20 61 -41 119 -46 130 -7 16 -30 85 -35 105 -1 3
-5 12 -8 20 -19 43 -35 100 -29 100 4 0 2 4 -3 8 -6 4 -23 45 -38 92 -16 47
-31 92 -34 100 -4 8 -5 18 -5 23 1 4 -3 7 -10 7 -6 0 -9 3 -5 6 3 3 -3 28 -13
55 -11 27 -17 49 -14 49 4 0 1 6 -5 14 -7 8 -13 22 -16 32 -2 11 -18 57 -35
104 -17 47 -33 92 -35 100 -2 8 -15 47 -30 85 -15 39 -29 77 -30 85 -1 8 -7
26 -12 40 -5 14 -20 54 -33 90 -13 36 -28 71 -33 78 -5 6 -7 12 -3 12 3 0 0
15 -8 34 -8 19 -12 37 -8 40 3 3 0 6 -7 6 -7 0 -11 7 -8 15 4 8 2 17 -4 20 -5
4 -7 11 -4 16 4 5 1 9 -4 9 -6 0 -10 3 -10 8 1 4 1 9 -1 12 -1 3 -3 16 -6 29
-2 14 -8 29 -13 35 -4 6 -16 39 -26 74 -11 34 -21 62 -25 62 -3 0 -6 10 -8 23
-1 13 -9 41 -19 63 -9 21 -16 45 -14 52 1 6 -2 12 -7 12 -8 0 -16 25 -26 80
-1 3 -4 10 -8 15 -3 6 -29 75 -56 155 -28 80 -58 165 -67 190 -9 25 -18 50
-19 55 -2 6 -5 17 -8 25 -3 8 -16 44 -28 80 -12 36 -25 72 -28 80 -3 8 -6 17
-6 20 -1 3 -4 10 -8 16 -4 6 -9 21 -12 35 -3 13 -28 87 -56 164 -27 77 -50
146 -50 153 0 6 -5 12 -11 12 -5 0 -8 3 -6 8 3 4 0 18 -6 32 -5 14 -11 30 -12
35 -3 11 -82 241 -92 265 -3 8 -5 18 -5 23 1 4 -1 7 -6 7 -4 0 -8 12 -9 26 0
15 -6 30 -13 34 -6 4 -10 11 -9 16 1 5 0 16 -4 24 -3 8 -15 44 -27 80 -12 36
-26 74 -30 85 -5 11 -14 38 -21 60 -7 22 -17 44 -21 50 -4 5 -8 19 -8 32 0 13
-5 23 -12 23 -6 0 -9 3 -5 6 3 3 1 18 -5 33 -5 14 -11 33 -14 41 -2 8 -17 53
-35 100 -17 47 -32 90 -33 95 -1 6 -7 24 -13 40 -6 17 -15 39 -19 50 -4 11 -8
23 -9 28 -2 4 -4 10 -5 15 -1 4 -2 10 -1 15 0 4 -4 7 -11 7 -6 0 -9 3 -6 6 3
3 -17 69 -44 147 -28 78 -51 147 -52 152 -1 6 -7 20 -14 32 -7 12 -12 30 -12
40 0 10 -7 29 -16 41 -8 12 -12 27 -9 32 3 6 2 10 -3 10 -5 0 -9 6 -9 13 -1
11 -73 222 -96 277 -6 14 -9 29 -8 34 1 4 -3 14 -10 22 -6 7 -8 17 -5 23 3 5
2 11 -4 13 -5 1 -11 12 -13 23 -2 11 -9 31 -14 45 -6 14 -22 61 -37 105 -15
44 -31 89 -35 100 -5 11 -18 47 -29 80 -28 84 -112 327 -119 345 -4 8 -5 18
-5 23 1 4 -2 7 -6 7 -5 0 -9 6 -10 13 -3 31 -7 52 -12 57 -3 3 -21 50 -39 105
-19 55 -38 104 -42 109 -5 6 -9 23 -9 38 0 15 -5 28 -11 28 -5 0 -7 5 -4 10 3
6 1 10 -5 10 -6 0 -9 4 -5 10 3 5 1 17 -4 27 -6 10 -30 77 -54 148 -25 72 -52
147 -60 168 -9 20 -13 37 -10 37 3 0 0 7 -7 15 -7 8 -9 15 -5 15 4 0 3 6 -3
13 -6 6 -11 17 -12 22 -1 6 -6 20 -11 33 -5 13 -9 29 -9 36 0 7 -3 16 -7 20
-5 4 -9 12 -9 17 -1 5 -2 10 -4 12 -1 1 -3 9 -5 17 -2 13 -34 102 -52 150 -4
8 -5 18 -5 23 1 4 -2 7 -8 7 -5 0 -7 7 -4 15 4 8 1 15 -6 15 -6 0 -8 5 -5 10
4 6 1 17 -5 25 -7 8 -9 15 -5 15 4 0 2 7 -5 15 -6 8 -9 18 -6 24 3 5 2 11 -2
13 -5 1 -24 48 -42 103 -18 55 -35 105 -39 110 -3 6 -6 12 -6 15 -1 9 -26 84
-35 105 -16 39 -35 90 -36 100 -3 18 -55 160 -64 177 -6 10 -10 26 -10 36 0
10 -3 22 -7 26 -5 4 -9 12 -9 17 -1 5 -3 11 -4 14 -1 3 -3 8 -5 13 -1 4 -5 15
-9 24 -4 9 -8 22 -10 30 -1 7 -4 18 -7 23 -4 6 -17 42 -29 80 -12 39 -25 75
-29 80 -3 6 -7 18 -8 28 -2 10 -10 31 -18 46 -8 16 -11 32 -7 35 3 4 1 10 -6
14 -6 5 -13 17 -15 27 -1 11 -6 26 -10 33 -5 6 -6 16 -3 21 4 5 2 11 -2 13 -7
3 -35 74 -46 118 -2 8 -10 29 -17 45 -7 17 -13 35 -14 40 0 6 -6 24 -12 40
-27 71 -73 198 -76 210 -27 94 -57 145 -57 95z"/>
<path d="M30257 4245 c-1 -2 -40 -5 -87 -9 -47 -3 -96 -8 -110 -10 -14 -2 -47
-7 -73 -10 -26 -4 -58 -11 -72 -16 -14 -5 -25 -8 -25 -5 0 6 -121 -31 -195
-60 -153 -62 -281 -154 -362 -262 -15 -21 -36 -47 -45 -57 -10 -11 -18 -26
-18 -35 0 -8 -7 -22 -15 -31 -8 -9 -25 -58 -39 -109 -20 -77 -23 -112 -21
-209 3 -132 8 -165 36 -229 10 -24 19 -51 19 -59 0 -22 79 -132 136 -188 56
-56 176 -171 272 -258 59 -53 233 -169 277 -183 11 -4 40 -16 65 -27 25 -12
124 -52 220 -90 96 -38 181 -75 189 -81 8 -7 15 -11 15 -9 1 2 9 0 19 -3 24
-10 23 -106 -3 -160 -19 -40 -53 -85 -64 -85 -4 0 -23 -11 -44 -24 -43 -28
-150 -63 -225 -72 -60 -8 -219 -7 -292 1 -180 21 -397 101 -550 204 -52 36
-61 39 -66 23 -4 -9 -3 -26 1 -37 4 -11 4 -29 0 -40 -4 -11 -4 -32 1 -47 4
-16 5 -28 1 -28 -6 0 -7 -114 -1 -130 1 -3 0 -9 -1 -15 -2 -13 -1 -111 2 -163
2 -23 0 -42 -3 -42 -11 0 -1 -59 15 -81 36 -52 232 -240 255 -246 15 -3 31 -9
36 -13 28 -21 228 -70 350 -86 28 -3 59 -8 70 -11 11 -3 117 -7 235 -8 257 -4
359 6 600 60 76 17 287 110 317 141 8 8 18 14 22 14 24 0 191 183 191 209 0 6
4 11 9 11 10 0 27 39 23 53 -1 4 4 10 12 13 8 3 12 12 9 20 -3 8 0 14 7 14 6
0 10 6 7 13 -2 6 -1 19 4 28 4 9 11 28 14 42 3 15 8 39 11 54 12 52 8 291 -4
306 -7 7 -10 16 -7 18 2 3 -1 23 -7 45 -6 21 -11 42 -10 47 1 4 -3 7 -9 7 -5
0 -7 5 -4 10 3 6 1 10 -4 10 -6 0 -11 7 -11 16 0 8 -19 43 -42 77 -42 62 -89
111 -189 199 -30 25 -94 82 -144 125 -156 138 -298 220 -554 319 -64 25 -140
56 -168 69 -29 14 -64 27 -77 31 -30 7 -50 29 -41 44 3 5 3 10 -2 10 -4 0 -8
18 -8 40 0 22 3 40 8 40 4 0 7 7 7 17 0 38 72 112 144 147 101 48 178 61 366
60 208 -1 411 -48 568 -131 35 -19 66 -32 69 -30 2 3 4 128 3 278 l-1 274 -23
20 c-13 11 -41 34 -62 50 -21 17 -65 52 -98 79 -34 27 -76 55 -94 63 -34 14
-169 48 -237 59 -22 3 -47 8 -55 9 -59 11 -433 27 -443 20z"/>
<path d="M33337 4243 c-1 0 -243 -4 -537 -8 -294 -4 -634 -8 -755 -10 -121 -2
-327 -5 -458 -6 -130 -2 -241 -6 -245 -9 -11 -8 -9 -64 3 -72 7 -5 7 -8 -1 -8
-14 0 -14 -30 0 -30 6 0 5 -4 -2 -9 -17 -11 -17 -22 0 -32 10 -6 10 -11 1 -20
-7 -7 -9 -19 -3 -34 5 -13 6 -26 2 -30 -10 -10 -9 -29 3 -37 6 -5 6 -8 0 -8
-11 0 -12 -100 -1 -118 4 -7 3 -12 -2 -12 -5 0 -8 -16 -7 -36 2 -32 12 -43
101 -116 55 -44 114 -92 132 -107 l33 -27 269 4 270 3 1 -23 c0 -13 0 -453 1
-978 l1 -955 31 -28 c17 -16 51 -45 75 -65 24 -21 55 -48 70 -62 15 -14 43
-39 62 -56 l34 -30 200 2 c359 5 445 9 446 19 1 6 2 500 3 1100 l1 1090 110 2
c61 1 243 4 405 6 l295 4 3 246 2 245 -24 19 c-13 10 -34 25 -46 33 -12 8 -32
22 -44 31 -11 8 -57 40 -100 70 l-80 54 -124 0 c-68 0 -124 -1 -125 -2z"/>
<path d="M28277 4173 c-3 -2 -646 -12 -911 -13 -98 -1 -184 -4 -190 -6 -8 -3
-11 -361 -11 -1337 l0 -1333 50 -60 c28 -32 55 -64 60 -70 6 -6 30 -35 54 -63
l44 -53 351 6 c193 3 504 8 691 12 187 3 415 7 508 8 92 2 171 6 175 10 4 4 7
116 7 247 l1 240 -116 119 -116 120 -349 -6 c-193 -4 -384 -7 -425 -8 l-74 0
-1 187 c0 122 3 187 10 188 18 1 360 9 615 13 135 2 262 5 283 5 l37 1 0 246
0 247 -116 111 -117 112 -166 -3 c-91 -1 -252 -4 -356 -6 l-191 -3 1 188 0
188 65 1 c62 0 434 6 778 12 152 3 204 12 173 31 -8 5 -8 13 -1 27 6 10 7 19
3 19 -4 0 -8 14 -8 30 0 17 4 30 8 30 4 0 2 10 -4 22 -9 16 -9 23 -1 26 8 2 9
9 2 22 -6 10 -7 21 -2 24 8 5 6 85 -2 93 -3 3 -1 14 4 24 7 12 7 20 0 24 -6 4
-7 13 -1 23 6 11 5 24 -1 36 -8 14 -7 17 1 12 8 -5 8 0 2 17 -6 14 -7 28 -4
31 4 3 -4 15 -17 26 -13 12 -59 53 -103 92 -43 40 -87 78 -97 85 -14 10 -80
12 -280 10 -144 -1 -262 -3 -263 -4z"/>
<path d="M25386 4133 c-1 -1 -200 -5 -441 -9 -242 -3 -442 -10 -445 -15 -5 -8
-5 -130 0 -154 1 -5 1 -12 0 -15 -6 -15 -5 -118 1 -136 4 -12 5 -25 2 -28 -9
-9 -9 -196 0 -196 5 0 5 -6 0 -12 -11 -18 -10 -68 2 -68 7 0 7 -3 0 -8 -12 -8
-14 -232 -2 -232 5 0 5 -5 1 -12 -10 -15 -12 -217 -2 -244 3 -12 4 -25 1 -28
-9 -9 -10 -107 -2 -132 4 -12 5 -25 2 -28 -9 -9 -10 -107 -2 -132 4 -12 5 -25
2 -28 -9 -9 -10 -107 -2 -132 4 -12 5 -25 2 -28 -9 -9 -9 -196 0 -196 5 0 5
-6 0 -12 -11 -18 -10 -68 2 -68 7 0 7 -3 0 -8 -12 -8 -14 -232 -2 -232 5 0 5
-5 1 -12 -10 -15 -12 -217 -2 -244 3 -12 4 -25 1 -28 -9 -9 -10 -107 -1 -133
4 -12 4 -24 0 -27 -14 -8 -2 -110 14 -119 8 -4 14 -14 14 -21 0 -7 10 -24 23
-38 12 -14 31 -41 41 -61 10 -20 23 -34 27 -31 5 3 9 -1 9 -9 0 -8 10 -25 23
-39 22 -25 24 -26 142 -23 66 2 211 4 322 5 213 1 218 3 202 47 -5 13 -4 25 1
28 11 6 9 33 -3 52 -4 6 -4 14 1 17 9 5 8 218 -1 233 -4 7 -3 14 3 18 10 6 9
33 -3 52 -4 6 -4 14 1 17 7 4 9 205 2 231 -1 6 -1 15 0 20 7 25 4 61 -5 67 -7
5 -7 8 0 8 12 0 13 159 2 177 -4 6 -3 14 1 17 5 3 8 17 7 31 -4 28 -6 28 150
28 71 0 101 -5 143 -23 28 -12 52 -26 52 -31 0 -5 6 -9 13 -9 8 0 22 -16 33
-35 10 -19 22 -35 26 -35 5 0 8 -4 8 -9 0 -5 45 -77 100 -161 56 -83 106 -162
112 -175 6 -14 15 -25 20 -25 4 0 8 -6 8 -14 0 -8 3 -16 8 -18 4 -2 32 -41 61
-88 29 -47 57 -86 62 -88 5 -2 9 -9 9 -14 0 -10 106 -153 135 -184 6 -6 28
-34 49 -62 l39 -50 206 3 c113 2 281 4 373 5 120 2 166 6 161 14 -3 6 -39 58
-78 116 -39 58 -91 134 -116 170 -24 36 -48 69 -52 75 -33 43 -137 197 -137
205 0 4 -4 10 -8 12 -5 2 -38 46 -72 98 -35 52 -68 97 -72 98 -4 2 -8 10 -8
17 0 8 -8 19 -17 24 -10 6 -13 11 -8 11 7 0 6 3 0 8 -11 8 -45 49 -85 102 -14
18 -34 43 -46 54 -11 12 -40 46 -65 76 -24 30 -54 66 -66 80 -12 14 -31 36
-43 50 l-21 24 78 36 c43 20 105 54 138 75 67 43 202 175 225 221 8 16 18 31
21 34 15 13 62 129 79 193 20 82 21 201 1 262 -8 22 -16 47 -19 55 -6 18 -9
29 -16 55 -3 11 -12 45 -21 75 -9 30 -18 62 -20 70 -2 8 -8 27 -12 42 -4 15
-48 71 -98 124 -49 53 -92 100 -95 104 -3 4 -34 27 -70 52 -259 178 -293 199
-323 203 -17 1 -52 6 -77 9 -25 3 -63 8 -85 11 -70 8 -288 35 -335 41 -44 6
-180 11 -184 7z m309 -677 c17 -3 53 -9 80 -12 65 -8 98 -21 92 -37 -2 -6 0
-20 5 -31 12 -22 18 -66 9 -66 -3 0 -7 -19 -8 -41 -3 -79 -73 -185 -169 -255
-31 -23 -128 -59 -184 -69 -69 -12 -210 -13 -203 -1 10 15 11 196 2 222 -4 12
-5 25 -1 29 11 10 9 59 -3 67 -7 5 -7 8 0 8 6 0 10 37 10 93 l-1 92 66 5 c83
6 266 4 305 -4z"/>
<path d="M23387 4103 c-2 -1 -743 -11 -943 -12 l-130 -1 0 -135 c1 -84 -3
-135 -9 -135 -7 0 -7 -3 0 -8 6 -4 10 -156 10 -420 0 -268 -3 -412 -10 -412
-7 0 -7 -3 0 -8 6 -4 10 -95 10 -237 0 -142 -4 -233 -10 -237 -7 -5 -7 -8 0
-8 6 0 10 -94 10 -262 0 -164 -4 -266 -10 -270 -7 -5 -7 -8 0 -8 6 0 10 -32
10 -75 0 -43 -4 -75 -10 -75 -7 0 -7 -3 0 -8 13 -9 13 -205 0 -214 -7 -5 -7
-8 0 -8 6 0 10 -33 9 -82 -1 -70 2 -88 23 -127 42 -76 66 -116 76 -122 5 -3 8
-9 8 -13 -1 -12 13 -41 27 -56 12 -12 49 -14 211 -11 108 2 282 5 386 6 675
11 1142 20 1155 24 8 2 5 165 -3 179 -5 6 -5 12 0 12 11 0 9 162 -2 180 -5 8
-4 11 2 7 7 -4 9 15 7 55 -2 54 -8 69 -51 132 -26 39 -51 73 -55 74 -5 2 -8 8
-8 13 0 6 -9 19 -20 31 -11 12 -20 28 -20 36 0 11 -67 12 -432 7 -563 -9 -529
-9 -513 3 6 4 10 56 10 119 0 69 -4 113 -10 113 -7 0 -7 3 0 8 6 4 10 34 10
67 l0 60 110 2 c61 1 272 5 469 8 198 4 363 8 366 10 3 2 5 114 5 248 -1 245
-1 245 -25 279 -14 19 -50 69 -80 112 l-55 77 -395 -3 -395 -3 0 125 c0 72 -4
128 -10 132 -7 5 -6 8 0 8 7 0 10 22 8 55 l-2 55 117 1 c64 0 212 2 327 4 116
2 289 4 386 5 96 1 180 4 185 8 16 11 12 504 -3 510 -7 2 -13 8 -13 13 0 8
-15 29 -45 63 -6 6 -26 31 -45 56 -19 25 -39 48 -45 53 -8 6 -582 6 -588 0z"/>
<path d="M21284 4055 c-8 -11 -14 -25 -14 -32 0 -8 -11 -45 -24 -83 -14 -39
-22 -70 -19 -70 3 0 1 -6 -5 -12 -14 -18 -42 -115 -35 -122 4 -3 0 -6 -7 -6
-7 0 -10 -3 -7 -7 4 -3 2 -12 -4 -19 -6 -8 -9 -20 -6 -28 3 -8 2 -16 -2 -18
-4 -2 -20 -43 -35 -93 -15 -49 -30 -97 -33 -105 -8 -20 -8 -20 -18 -55 -4 -16
-10 -34 -14 -40 -3 -5 -7 -16 -8 -22 -7 -30 -12 -48 -13 -50 -2 -2 -3 -6 -4
-10 -1 -5 -5 -14 -9 -20 -5 -7 -5 -17 -2 -23 3 -5 1 -10 -4 -10 -6 0 -11 -8
-11 -17 0 -15 -17 -72 -51 -168 -6 -16 -12 -41 -15 -55 -3 -13 -11 -28 -17
-32 -7 -4 -8 -8 -3 -8 5 0 3 -6 -3 -13 -6 -8 -8 -17 -4 -20 3 -4 1 -13 -5 -20
-7 -8 -9 -17 -5 -20 3 -4 2 -12 -4 -19 -12 -17 -82 -245 -79 -259 0 -3 -4 -12
-11 -20 -6 -8 -14 -26 -16 -39 -3 -14 -10 -37 -15 -51 -6 -15 -8 -30 -5 -33 4
-3 1 -6 -6 -6 -6 0 -11 -6 -10 -12 1 -7 -1 -20 -4 -28 -9 -22 -91 -283 -92
-295 -1 -5 -3 -12 -4 -15 -2 -3 -4 -13 -6 -23 -7 -35 -13 -28 -29 30 -9 32
-21 67 -26 78 -5 11 -14 38 -20 60 -6 22 -14 47 -18 55 -3 8 -7 20 -7 25 -1 6
-5 17 -8 25 -12 31 -49 146 -52 160 -2 8 -4 16 -5 18 -2 1 -3 5 -5 10 -1 4 -4
14 -8 22 -7 19 -91 283 -92 290 0 3 -4 10 -8 17 -4 6 -8 23 -9 37 -1 14 -6 26
-10 26 -4 0 -7 3 -7 8 1 4 0 9 -1 12 -1 3 -3 12 -5 20 -2 8 -19 65 -39 125
-20 61 -36 116 -36 123 0 7 -4 10 -10 7 -5 -3 -7 0 -4 9 3 8 0 24 -6 36 -6 12
-14 34 -16 48 -3 15 -9 31 -15 36 -5 6 -9 20 -9 31 0 12 -3 25 -7 29 -4 3 -8
14 -10 24 -1 9 -21 71 -43 137 -38 111 -45 135 -55 175 -2 8 -4 17 -5 20 -1 3
-2 8 -1 13 0 4 -4 7 -11 7 -6 0 -8 3 -5 7 4 3 2 12 -4 20 -6 7 -9 13 -5 13 7
0 -62 141 -73 150 -3 3 -7 11 -9 18 -1 7 -9 23 -17 36 -14 21 -18 22 -202 19
-204 -3 -494 -10 -505 -12 -4 0 -3 -13 3 -28 7 -16 15 -37 19 -48 4 -11 15
-36 23 -55 9 -19 13 -38 11 -42 -3 -4 0 -8 5 -8 6 0 11 -8 11 -19 0 -10 8 -36
17 -57 9 -22 16 -45 14 -51 -1 -7 4 -13 10 -13 7 0 9 -3 6 -7 -4 -3 -2 -12 4
-20 6 -7 8 -13 4 -13 -4 0 -3 -6 2 -12 6 -7 16 -31 23 -53 7 -22 17 -46 23
-52 5 -7 6 -13 1 -13 -4 0 -3 -5 4 -12 7 -7 12 -22 12 -34 0 -13 4 -25 9 -29
5 -3 13 -20 16 -38 4 -17 17 -50 28 -72 11 -22 20 -42 20 -45 -1 -7 4 -21 13
-45 4 -11 8 -23 9 -27 2 -5 4 -10 5 -13 1 -3 3 -8 5 -12 1 -5 5 -17 9 -28 4
-11 16 -44 27 -72 10 -29 28 -78 40 -108 12 -30 20 -57 20 -60 -1 -3 6 -19 14
-35 9 -17 13 -35 10 -40 -3 -6 -2 -10 3 -10 6 0 13 -12 18 -27 10 -36 9 -33
23 -68 7 -16 27 -70 43 -120 17 -49 36 -93 41 -96 5 -4 7 -11 3 -17 -3 -6 -1
-16 6 -24 7 -7 14 -20 15 -28 1 -8 13 -46 28 -85 15 -38 34 -91 42 -117 8 -27
19 -48 24 -48 6 0 7 -5 4 -10 -4 -6 -2 -16 3 -23 6 -7 11 -15 11 -19 7 -43 15
-68 24 -68 6 0 7 -3 4 -6 -3 -4 -1 -16 5 -28 7 -11 13 -26 14 -32 2 -13 60
-174 77 -214 6 -14 12 -29 12 -35 1 -5 7 -23 14 -40 25 -61 91 -243 91 -251 0
-5 9 -26 20 -47 11 -20 18 -37 15 -37 -3 0 1 -13 9 -29 9 -16 13 -31 10 -33
-2 -3 2 -11 11 -18 8 -7 15 -19 15 -27 0 -8 7 -27 15 -41 8 -15 28 -58 44 -95
l30 -68 338 7 c186 4 354 6 373 5 33 -1 37 2 49 36 8 21 18 49 24 63 6 14 11
28 11 32 1 3 4 10 9 14 4 4 7 15 7 24 0 10 10 39 22 66 12 27 23 55 24 61 2
12 37 106 65 178 7 17 13 37 15 46 2 9 12 36 23 62 11 25 17 48 14 51 -4 3 -1
6 5 6 7 0 12 7 12 16 0 9 6 30 14 47 8 18 23 59 34 92 11 33 30 81 41 108 11
26 18 47 14 47 -3 0 0 7 7 15 7 8 10 15 6 15 -4 0 3 18 14 40 11 22 19 43 18
47 -1 5 8 30 20 56 12 27 22 52 22 56 0 4 12 36 26 72 14 35 27 71 29 79 2 8
17 50 33 93 17 42 27 77 23 77 -3 0 0 4 6 8 7 4 14 17 16 27 1 11 5 25 8 30 4
6 14 35 24 65 10 30 22 61 28 68 5 6 6 12 3 12 -4 0 -1 10 6 23 7 12 13 27 14
32 0 6 6 21 12 35 6 14 25 66 42 115 17 50 37 102 45 116 8 14 12 29 9 32 -3
3 1 16 10 29 8 13 17 33 19 43 1 11 6 26 10 33 5 6 5 17 2 22 -3 6 -2 10 4 10
9 0 15 14 26 60 1 3 5 12 8 20 10 24 59 154 62 165 1 6 8 26 16 45 7 19 12 38
11 43 -1 4 2 7 6 7 5 0 9 6 9 13 1 17 54 159 64 172 7 10 -46 106 -63 113 -5
2 -8 8 -8 14 0 5 -14 30 -31 54 l-31 46 -335 -4 c-321 -3 -336 -4 -349 -23z"/>
<path d="M18347 4033 c-1 0 -222 -4 -492 -8 -269 -4 -492 -8 -495 -10 -4 -2
-5 -26 -3 -52 4 -59 4 -60 0 -103 -2 -19 2 -38 7 -42 8 -6 8 -10 0 -15 -6 -5
-9 -34 -7 -68 1 -33 3 -64 3 -70 0 -5 -1 -25 -3 -42 -3 -18 -1 -33 3 -33 3 0
7 -7 7 -15 0 -8 -3 -15 -7 -15 -4 0 -5 -28 -3 -62 4 -80 4 -77 0 -118 -2 -19
2 -38 7 -42 8 -6 8 -10 0 -15 -6 -5 -9 -34 -7 -68 1 -33 3 -64 3 -70 0 -5 -1
-25 -3 -42 -3 -18 -1 -33 3 -33 3 0 7 -7 7 -15 0 -8 -3 -15 -7 -15 -4 0 -5
-28 -3 -62 4 -80 4 -77 0 -118 -2 -19 2 -38 7 -42 8 -6 8 -10 0 -15 -6 -5 -9
-34 -7 -68 1 -33 3 -64 3 -70 0 -5 -1 -25 -3 -42 -3 -18 -1 -33 3 -33 3 0 7
-7 7 -15 0 -8 -3 -15 -7 -15 -4 0 -5 -28 -3 -62 4 -80 4 -77 0 -118 -2 -19 2
-38 7 -42 8 -6 8 -10 0 -15 -6 -5 -9 -34 -7 -68 1 -33 3 -64 3 -70 0 -5 -1
-25 -3 -42 -3 -18 0 -33 5 -33 7 0 7 -5 1 -12 -5 -7 -8 -24 -6 -38 4 -33 4
-39 0 -77 -3 -18 -1 -33 3 -33 3 0 7 -7 7 -15 0 -8 -3 -15 -7 -15 -4 0 -5 -28
-3 -62 4 -80 4 -77 0 -118 -2 -19 2 -38 7 -42 8 -6 8 -10 0 -15 -6 -5 -9 -34
-7 -68 1 -33 3 -64 3 -70 0 -5 -1 -25 -3 -42 -3 -18 0 -33 5 -33 7 0 7 -5 1
-12 -5 -7 -8 -24 -6 -38 4 -33 4 -39 0 -77 -3 -18 -1 -33 4 -33 5 0 4 -11 -1
-24 -5 -14 -6 -26 -1 -28 6 -3 34 -88 46 -142 3 -10 9 -34 15 -52 l11 -33 252
4 c139 3 392 7 562 10 810 13 939 16 944 19 9 6 5 498 -4 521 -4 11 -20 49
-35 85 -15 36 -27 67 -28 70 0 3 -6 18 -13 33 l-13 28 -445 -7 c-245 -4 -466
-7 -491 -8 -25 -1 -50 0 -55 1 -7 2 -11 70 -10 191 l0 187 60 2 c80 2 606 11
771 13 l130 2 -1 256 c-2 226 -4 262 -20 297 -10 22 -19 42 -20 45 0 3 -6 15
-13 26 -6 12 -8 24 -5 28 3 3 1 6 -5 6 -7 0 -11 3 -10 8 1 4 -4 19 -10 33
l-11 26 -313 -4 c-172 -2 -366 -5 -430 -6 -74 -2 -119 1 -121 8 -2 5 -3 91 -3
189 l1 180 135 3 c108 2 618 9 851 12 l46 1 -1 253 c-1 206 -4 258 -17 287 -9
19 -27 60 -39 90 -13 30 -28 61 -34 68 -8 11 -76 13 -349 10 -186 -2 -339 -4
-340 -5z"/>
<path d="M15486 3993 c-1 -1 -70 -3 -154 -4 -132 -1 -152 -3 -156 -17 -5 -16
-14 -57 -20 -92 -2 -8 -6 -23 -10 -32 -4 -9 -5 -21 -2 -27 4 -5 2 -12 -3 -15
-4 -3 -12 -25 -16 -48 -9 -51 -10 -52 -30 -143 -9 -38 -18 -86 -21 -105 -4
-19 -10 -40 -16 -47 -5 -7 -7 -16 -4 -21 4 -7 -1 -34 -19 -92 -1 -3 -5 -29
-10 -57 -4 -29 -10 -53 -14 -53 -3 0 -7 -12 -8 -28 -3 -28 -10 -67 -13 -67 -1
0 -3 -9 -5 -20 -3 -11 -6 -31 -9 -45 -3 -14 -8 -38 -11 -55 -3 -16 -8 -38 -11
-47 -7 -23 -14 -57 -20 -93 -3 -16 -7 -37 -11 -45 -3 -8 -7 -31 -10 -50 -3
-19 -9 -40 -15 -47 -5 -7 -7 -16 -4 -22 3 -5 2 -20 -3 -34 -10 -27 -21 -74
-28 -129 -3 -21 -8 -38 -12 -38 -4 0 -7 -10 -8 -22 0 -18 -21 -117 -47 -223
-2 -5 -6 -31 -11 -57 -4 -27 -10 -48 -14 -48 -4 0 -6 -13 -5 -30 1 -16 -1 -30
-5 -30 -3 0 -7 -12 -7 -27 -2 -31 -12 -118 -14 -118 -1 0 -3 -17 -5 -38 -4
-47 -15 -61 -16 -21 0 16 -2 38 -4 49 -2 11 -7 39 -10 62 -11 84 -55 274 -65
283 -3 3 -6 14 -7 25 -2 23 -4 32 -22 95 -8 25 -14 50 -15 55 -2 6 -8 30 -15
55 -7 25 -15 52 -17 60 -4 17 -30 118 -43 170 -6 19 -15 58 -22 85 -7 28 -16
55 -20 61 -5 6 -6 14 -3 17 3 3 2 12 -2 19 -4 7 -9 19 -10 28 -7 45 -100 386
-107 391 -5 3 -7 8 -6 10 6 7 -24 139 -32 139 -4 0 -6 11 -4 25 1 14 -2 25 -7
25 -5 0 -8 6 -7 13 1 6 -1 19 -4 27 -6 15 -26 91 -32 120 -8 38 -56 217 -64
236 -8 19 -16 20 -112 17 -57 -1 -215 -4 -351 -5 l-247 -3 -8 -30 c-9 -38 -9
-37 -16 -55 -3 -8 -23 -76 -43 -150 -21 -74 -40 -137 -43 -140 -6 -5 -12 -36
-15 -70 0 -8 -3 -17 -6 -20 -6 -5 -41 -112 -47 -140 -1 -8 -17 -62 -34 -120
-17 -58 -31 -111 -32 -117 0 -7 -4 -13 -9 -13 -5 0 -7 -4 -4 -8 2 -4 -4 -35
-15 -67 -11 -33 -22 -69 -24 -80 -2 -11 -4 -21 -6 -22 -2 -3 -2 -5 -14 -48 -4
-16 -16 -55 -26 -86 -10 -30 -20 -66 -23 -80 -2 -13 -12 -46 -21 -73 -17 -50
-25 -80 -28 -106 -1 -8 -5 -17 -8 -20 -5 -4 -59 -188 -63 -215 -1 -5 -5 -15
-8 -21 -4 -6 -10 -25 -13 -43 -3 -19 -12 -49 -20 -67 -8 -19 -12 -34 -10 -34
3 0 0 -11 -5 -26 -11 -27 -21 -74 -24 -115 -2 -14 -6 -30 -9 -35 -3 -6 -7 -31
-8 -57 -3 -49 -18 -88 -20 -52 -4 68 -17 177 -25 219 -2 11 -6 38 -10 61 -3
22 -9 45 -13 50 -4 6 -6 20 -5 33 0 12 -2 22 -6 22 -5 0 -7 8 -5 18 1 9 -1 24
-6 33 -4 9 -9 33 -11 53 -1 20 -6 36 -11 36 -4 0 -7 8 -6 18 1 9 -3 35 -9 57
-6 22 -13 51 -16 65 -5 24 -42 185 -51 225 -3 11 -7 29 -10 40 -2 11 -9 37
-14 58 -5 20 -7 37 -4 37 3 0 1 6 -4 13 -6 6 -11 19 -11 27 0 8 -3 24 -5 35
-18 70 -24 105 -20 105 3 0 0 7 -7 15 -7 8 -10 22 -6 30 3 8 0 15 -6 15 -6 0
-9 2 -6 5 3 3 -5 49 -18 103 -14 53 -26 109 -29 124 -2 15 -9 46 -15 69 -7 24
-13 52 -15 63 -1 12 -5 28 -9 36 -3 8 -7 24 -9 35 -1 11 -7 26 -11 34 -7 11
-6 12 5 6 11 -7 12 -6 3 6 -6 8 -17 41 -24 74 -8 33 -14 62 -15 65 -3 9 -16
74 -19 90 -1 8 -6 26 -11 40 -4 14 -9 34 -10 45 -1 11 -3 23 -4 27 -2 12 -715
-2 -722 -14 -4 -6 -6 -28 -5 -49 2 -22 -2 -39 -8 -39 -7 0 -8 -3 -1 -8 11 -8
14 -64 4 -72 -4 -3 0 -30 8 -60 9 -30 16 -62 17 -70 1 -9 4 -20 7 -25 3 -6 14
-39 24 -75 10 -36 29 -103 43 -149 13 -47 25 -89 26 -95 1 -6 5 -17 10 -24 4
-7 5 -16 2 -19 -3 -3 -1 -12 5 -20 6 -7 8 -13 4 -13 -4 0 -2 -6 4 -14 6 -7 12
-26 13 -42 1 -16 5 -31 8 -34 4 -4 31 -93 44 -151 2 -8 11 -38 19 -66 9 -28
13 -54 10 -57 -4 -3 -1 -6 5 -6 7 0 11 -3 10 -7 -1 -5 2 -20 6 -34 4 -14 9
-34 11 -45 2 -10 4 -21 5 -24 1 -3 2 -8 1 -12 0 -5 3 -8 7 -8 4 0 9 -8 10 -17
3 -32 7 -48 15 -60 5 -7 6 -17 2 -22 -3 -5 0 -13 6 -16 5 -4 8 -13 5 -21 -3
-8 -1 -14 4 -14 6 0 9 -3 8 -7 -1 -5 4 -28 11 -53 16 -53 16 -55 26 -98 4 -18
12 -35 16 -38 5 -3 7 -9 5 -13 -3 -4 8 -49 23 -99 16 -50 26 -93 23 -96 -3 -4
-1 -6 5 -6 5 0 10 -6 10 -13 0 -12 58 -230 71 -267 8 -23 8 -23 16 -55 5 -16
15 -50 23 -75 8 -25 16 -53 18 -62 2 -9 20 -73 39 -141 20 -69 36 -132 36
-141 0 -9 4 -16 8 -16 4 0 9 -12 10 -26 1 -15 8 -34 15 -42 10 -13 9 -14 -3
-7 -12 6 -13 5 -2 -6 6 -7 12 -23 12 -36 0 -13 4 -23 8 -23 5 0 9 -6 9 -12 0
-7 10 -49 22 -93 13 -44 25 -91 27 -104 3 -14 7 -29 10 -33 4 -5 132 -7 292
-4 158 2 332 5 387 5 l100 1 39 143 c22 78 42 144 45 147 3 3 7 12 8 20 1 8 4
25 7 38 3 12 8 31 10 42 3 11 7 24 10 28 3 5 7 19 10 33 3 13 20 77 39 141 19
65 32 120 29 123 -3 3 0 5 6 5 7 0 12 11 12 24 0 13 11 59 25 102 14 43 28 92
31 108 2 16 9 36 13 45 5 9 14 41 21 71 7 30 17 66 23 80 5 14 11 38 13 54 3
17 8 32 12 35 4 4 9 19 10 35 1 16 7 35 13 42 6 7 8 18 5 23 -4 5 -1 13 5 16
5 4 8 13 5 21 -3 8 -1 14 4 14 5 0 7 7 4 15 -4 8 -2 15 3 15 5 0 10 6 10 13 0
19 45 181 53 192 4 6 6 18 5 28 -2 9 1 17 6 17 5 0 8 3 7 8 -3 13 14 82 21 82
3 0 7 10 7 23 1 12 5 36 9 52 4 17 8 35 9 40 1 6 6 16 10 24 7 10 5 12 -3 6
-10 -6 -11 -3 -3 11 5 11 13 51 17 89 7 71 14 96 16 57 4 -64 21 -174 36 -237
8 -33 15 -66 15 -72 1 -7 5 -13 10 -13 5 0 7 -4 4 -9 -5 -8 3 -40 21 -91 7
-17 13 -47 15 -72 1 -10 6 -18 11 -18 5 0 7 -9 4 -20 -3 -11 -2 -20 2 -20 4 0
8 -6 8 -12 1 -7 13 -51 27 -98 14 -47 26 -93 26 -102 0 -10 3 -18 8 -18 4 0 8
-17 10 -37 1 -20 6 -39 10 -43 4 -3 9 -12 10 -20 5 -21 10 -39 22 -85 6 -22
13 -51 16 -64 3 -14 7 -28 10 -33 3 -4 16 -52 30 -105 14 -54 28 -105 31 -113
3 -8 8 -25 10 -38 2 -12 9 -35 15 -50 6 -15 12 -34 14 -42 1 -8 11 -46 22 -85
11 -38 32 -113 46 -165 15 -52 34 -120 43 -150 9 -30 18 -60 19 -67 1 -6 7
-27 12 -45 6 -18 16 -52 22 -76 l11 -43 367 7 c202 3 369 7 370 9 9 8 59 195
54 200 -3 3 1 5 8 5 7 0 11 2 8 5 -3 3 10 58 29 123 19 64 36 124 38 133 2 8
10 38 18 66 9 28 13 54 10 57 -4 3 -2 6 4 6 5 0 10 6 11 13 1 17 5 31 57 212
25 88 47 168 48 178 1 9 5 17 9 17 4 0 5 7 2 15 -4 8 -1 15 5 15 7 0 11 6 10
13 -1 6 1 24 5 38 4 14 8 32 10 40 1 8 12 46 24 84 12 39 23 79 25 90 2 11 7
27 10 35 10 27 40 135 40 148 0 6 3 12 7 12 4 0 7 6 7 13 1 17 10 56 23 97 9
29 25 85 46 160 2 8 11 40 20 70 16 55 33 116 37 135 1 6 6 16 10 23 5 6 5 17
2 22 -3 6 -2 10 3 10 5 0 9 6 10 13 1 21 12 65 22 91 5 13 6 27 3 30 -4 3 -2
6 4 6 5 0 10 6 10 13 1 11 9 44 33 132 6 22 12 45 13 50 1 6 5 15 9 20 3 6 9
28 12 50 4 21 10 42 14 45 4 3 8 16 10 30 1 14 5 32 9 40 3 8 7 20 8 25 2 6
13 46 25 89 20 72 21 85 10 138 -7 32 -16 58 -20 58 -4 0 -5 11 -3 24 3 13 0
27 -6 30 -5 4 -8 13 -4 21 3 9 -1 16 -8 17 -22 2 -350 3 -353 1z"/>
<path d="M11166 3933 c-1 -1 -218 -5 -481 -8 -433 -6 -854 -13 -896 -14 -9 -1
-16 -7 -16 -13 -1 -33 -16 -124 -21 -133 -4 -5 -7 -643 -8 -1417 l0 -1407 195
4 c108 2 387 7 621 10 234 4 495 9 580 10 85 2 209 4 275 4 l120 1 3 73 c1 39
3 208 5 375 l2 303 -335 -6 c-184 -3 -432 -8 -551 -10 l-216 -5 -1 193 -1 193
97 1 c53 1 266 5 472 8 206 3 376 8 379 10 2 3 4 17 5 32 1 16 5 33 9 40 4 6
3 14 -3 18 -6 4 -7 11 -4 17 11 17 10 609 0 616 -6 3 -35 5 -65 5 -31 -1 -243
-4 -473 -8 l-416 -6 0 190 0 191 31 1 c230 4 661 11 802 13 99 0 183 5 186 10
9 11 11 91 13 424 1 150 -1 276 -4 280 -4 7 -298 11 -304 5z"/>
<path d="M8475 3890 c-1 -3 -13 -48 -26 -100 -20 -84 -31 -203 -28 -295 1 -16
1 -70 0 -120 0 -49 0 -101 0 -115 1 -14 1 -50 0 -80 -1 -30 -1 -66 0 -80 1
-14 1 -50 0 -80 -1 -30 -1 -66 0 -80 1 -14 1 -50 0 -80 -1 -30 -1 -66 0 -80 1
-14 1 -50 0 -80 -1 -30 -1 -66 0 -80 1 -14 1 -50 0 -80 -1 -30 -1 -66 0 -80 1
-14 1 -50 0 -80 -1 -30 -1 -66 0 -80 1 -37 1 -142 0 -163 -1 -16 -3 -17 -16
-3 -8 8 -15 17 -15 20 0 6 -120 177 -130 186 -3 3 -32 43 -65 90 -32 47 -63
90 -67 95 -5 6 -34 46 -65 90 -31 44 -60 82 -64 83 -5 2 -9 8 -9 13 0 9 -77
120 -103 149 -8 8 -23 29 -33 45 -10 17 -22 35 -27 40 -37 49 -76 104 -87 125
-7 14 -21 31 -32 38 -10 7 -18 18 -18 23 0 9 -26 47 -63 94 -29 37 -127 175
-127 180 0 2 -9 15 -19 27 -11 13 -29 34 -40 47 -12 13 -21 27 -21 31 0 5 -85
125 -118 165 -4 6 -28 39 -52 75 -25 36 -48 67 -52 68 -5 2 -8 10 -8 17 0 29
-43 41 -140 39 -52 -1 -211 -3 -352 -5 l-257 -4 -16 -45 c-9 -25 -21 -61 -28
-80 -6 -19 -14 -37 -17 -40 -13 -10 -27 -88 -19 -101 4 -7 3 -19 -3 -26 -7 -9
-7 -13 0 -13 6 0 7 -13 2 -34 -4 -19 -4 -40 1 -47 4 -7 3 -19 -3 -26 -7 -9 -7
-13 0 -13 6 0 7 -13 2 -34 -4 -19 -4 -40 1 -47 4 -7 5 -17 2 -22 -7 -12 -10
-77 -2 -77 8 0 5 -32 -5 -48 -4 -6 -3 -12 2 -12 6 0 7 -14 2 -34 -4 -19 -4
-40 1 -47 4 -7 3 -19 -3 -26 -7 -9 -7 -13 0 -13 6 0 7 -13 2 -34 -4 -19 -4
-40 1 -47 4 -7 3 -19 -3 -26 -7 -9 -7 -13 0 -13 7 0 8 -10 2 -30 -5 -16 -5
-30 -1 -30 11 0 8 -73 -3 -81 -5 -4 -5 -13 0 -20 10 -17 10 -51 0 -67 -4 -6
-3 -12 2 -12 6 0 7 -14 2 -34 -4 -19 -4 -40 1 -47 4 -7 3 -19 -3 -26 -7 -9 -7
-13 0 -13 6 0 7 -13 2 -34 -4 -19 -4 -40 1 -47 4 -7 3 -19 -3 -26 -7 -9 -7
-13 0 -13 6 0 7 -13 2 -34 -4 -19 -4 -40 1 -47 4 -7 5 -17 2 -22 -7 -12 -10
-77 -2 -77 8 0 5 -32 -5 -48 -4 -6 -3 -12 2 -12 6 0 7 -14 2 -34 -4 -19 -4
-40 1 -47 4 -7 3 -19 -3 -26 -7 -9 -7 -13 0 -13 6 0 7 -13 2 -34 -4 -19 -4
-40 1 -47 4 -7 3 -19 -3 -26 -7 -9 -7 -13 0 -13 7 0 8 -10 2 -30 -5 -16 -5
-30 -1 -30 11 0 8 -73 -3 -81 -5 -4 -5 -13 0 -20 10 -17 10 -51 0 -67 -4 -6
-3 -12 2 -12 6 0 7 -14 2 -34 -4 -19 -4 -40 1 -47 4 -7 3 -19 -3 -26 -7 -9 -7
-13 0 -13 6 0 7 -13 2 -34 -4 -19 -4 -40 1 -47 4 -7 3 -19 -3 -26 -7 -9 -7
-13 1 -13 8 0 9 -5 1 -19 -5 -11 -6 -22 -1 -25 8 -5 6 -67 -4 -93 -2 -7 -1
-13 4 -13 5 0 5 -18 1 -40 -4 -22 -4 -40 0 -40 4 0 4 -18 0 -40 -4 -22 -4 -40
0 -40 4 0 4 -16 0 -35 -5 -22 -4 -35 2 -35 6 0 6 -6 -1 -14 -9 -10 -9 -16 -1
-21 8 -5 8 -11 1 -19 -7 -9 -7 -16 1 -24 9 -9 9 -12 -1 -12 -10 0 -11 -3 -2
-14 8 -10 9 -16 1 -21 -6 -3 -7 -12 -3 -18 9 -15 10 -34 2 -74 -8 -38 -3 -40
101 -37 41 1 180 3 308 5 l232 4 6 33 c3 17 11 32 16 32 6 0 7 7 4 16 -3 9 -3
21 1 27 4 7 9 19 11 27 6 29 8 35 15 48 5 6 6 12 3 12 -3 0 2 16 10 35 11 27
11 35 2 35 -8 0 -9 3 -3 8 6 4 10 74 10 172 0 98 -4 168 -10 172 -6 5 -6 8 2
8 12 0 12 17 0 37 -4 6 -2 15 4 19 8 4 7 9 -2 15 -9 6 -10 9 -2 9 12 0 12 17
0 37 -4 6 -2 15 4 19 8 4 7 9 -2 15 -9 6 -10 9 -2 9 12 0 12 17 0 37 -4 6 -2
15 4 19 8 4 7 9 -2 15 -9 6 -10 9 -2 9 12 0 12 17 0 37 -4 6 -2 15 4 19 8 4 7
9 -2 15 -9 6 -10 9 -2 9 12 0 12 17 0 37 -4 6 -2 15 4 19 8 4 7 9 -2 15 -9 6
-10 9 -2 9 12 0 12 17 0 37 -4 6 -2 15 4 19 8 4 7 9 -2 15 -9 6 -10 9 -2 9 12
0 12 17 0 37 -4 6 -2 15 4 19 8 4 7 9 -2 15 -9 6 -10 9 -2 9 13 0 12 18 -1 39
-5 8 -5 12 0 8 13 -7 12 226 -1 235 -7 5 -7 8 0 8 6 0 9 66 8 181 l-1 181 49
-68 c27 -38 54 -77 61 -88 7 -10 18 -24 24 -30 5 -6 29 -39 52 -72 23 -34 48
-69 57 -77 8 -9 15 -18 15 -21 0 -6 100 -147 111 -156 3 -3 32 -43 65 -90 32
-47 62 -89 67 -95 4 -5 36 -49 71 -98 35 -48 71 -97 80 -110 9 -12 42 -58 73
-102 32 -44 61 -81 65 -83 4 -2 8 -9 8 -17 0 -7 6 -18 14 -24 8 -7 35 -42 61
-79 26 -37 60 -85 76 -107 16 -22 45 -62 64 -90 18 -27 43 -60 55 -72 11 -13
18 -23 15 -23 -3 0 4 -10 15 -22 12 -13 35 -45 53 -73 17 -27 38 -57 47 -65 8
-8 20 -23 25 -31 6 -9 26 -40 45 -68 l35 -52 339 5 c186 4 342 8 347 11 4 3 6
12 2 20 -3 8 -1 15 4 15 4 0 8 16 7 35 -1 19 2 35 6 35 4 0 6 14 4 30 -2 17 0
30 4 30 4 0 8 15 10 33 1 17 3 648 5 1400 l2 1368 -313 -3 c-173 -2 -315 -5
-317 -8z"/>
</g>
</svg>
